<mxfile host="app.diagrams.net" modified="2023-08-15T14:35:51.378Z" agent="Mozilla/5.0 (Windows NT 10.0; Win64; x64) AppleWebKit/537.36 (KHTML, like Gecko) Chrome/115.0.0.0 Safari/537.36" etag="Vui1QPQEIhS-LS6QhpSI" version="21.6.8" type="device">
  <diagram name="‫עמוד-1‬" id="q90WTUdGK7D4Q25ElTc2">
    <mxGraphModel dx="7512" dy="783" grid="1" gridSize="10" guides="1" tooltips="1" connect="1" arrows="1" fold="1" page="1" pageScale="1" pageWidth="827" pageHeight="1169" math="0" shadow="0">
      <root>
        <mxCell id="0" />
        <mxCell id="1" parent="0" />
        <mxCell id="LFWVvYf6qhsQMJw6hhTW-14" value="" style="edgeStyle=orthogonalEdgeStyle;rounded=0;orthogonalLoop=1;jettySize=auto;html=1;entryX=0;entryY=0.5;entryDx=0;entryDy=0;" edge="1" parent="1" source="LFWVvYf6qhsQMJw6hhTW-1" target="LFWVvYf6qhsQMJw6hhTW-7">
          <mxGeometry relative="1" as="geometry" />
        </mxCell>
        <mxCell id="LFWVvYf6qhsQMJw6hhTW-1" value="Actor" style="shape=umlActor;verticalLabelPosition=bottom;verticalAlign=top;html=1;outlineConnect=0;" vertex="1" parent="1">
          <mxGeometry x="-2494" y="1820" width="30" height="60" as="geometry" />
        </mxCell>
        <mxCell id="LFWVvYf6qhsQMJw6hhTW-2" value="maze2d" style="shape=umlActor;verticalLabelPosition=bottom;verticalAlign=top;html=1;outlineConnect=0;" vertex="1" parent="1">
          <mxGeometry x="-1674" y="1340" width="30" height="60" as="geometry" />
        </mxCell>
        <mxCell id="LFWVvYf6qhsQMJw6hhTW-5" value="exit" style="ellipse;whiteSpace=wrap;html=1;" vertex="1" parent="1">
          <mxGeometry x="-2147" y="1180" width="90" height="60" as="geometry" />
        </mxCell>
        <mxCell id="LFWVvYf6qhsQMJw6hhTW-7" value="display" style="ellipse;whiteSpace=wrap;html=1;" vertex="1" parent="1">
          <mxGeometry x="-2147" y="1260" width="90" height="60" as="geometry" />
        </mxCell>
        <mxCell id="LFWVvYf6qhsQMJw6hhTW-8" value="maze size" style="ellipse;whiteSpace=wrap;html=1;" vertex="1" parent="1">
          <mxGeometry x="-2143" y="1340" width="90" height="60" as="geometry" />
        </mxCell>
        <mxCell id="LFWVvYf6qhsQMJw6hhTW-10" value="load maze" style="ellipse;whiteSpace=wrap;html=1;" vertex="1" parent="1">
          <mxGeometry x="-2143" y="1420" width="90" height="60" as="geometry" />
        </mxCell>
        <mxCell id="LFWVvYf6qhsQMJw6hhTW-11" value="compress" style="ellipse;whiteSpace=wrap;html=1;" vertex="1" parent="1">
          <mxGeometry x="-2143" y="1500" width="90" height="60" as="geometry" />
        </mxCell>
        <mxCell id="LFWVvYf6qhsQMJw6hhTW-12" value="load compress" style="ellipse;whiteSpace=wrap;html=1;" vertex="1" parent="1">
          <mxGeometry x="-2143" y="1580" width="90" height="60" as="geometry" />
        </mxCell>
        <mxCell id="LFWVvYf6qhsQMJw6hhTW-511" value="" style="edgeStyle=orthogonalEdgeStyle;rounded=0;orthogonalLoop=1;jettySize=auto;html=1;exitX=0.5;exitY=0.5;exitDx=0;exitDy=0;exitPerimeter=0;" edge="1" parent="1" source="LFWVvYf6qhsQMJw6hhTW-13" target="LFWVvYf6qhsQMJw6hhTW-25">
          <mxGeometry relative="1" as="geometry" />
        </mxCell>
        <mxCell id="LFWVvYf6qhsQMJw6hhTW-13" value="Algorithm" style="shape=umlActor;verticalLabelPosition=bottom;verticalAlign=top;html=1;outlineConnect=0;" vertex="1" parent="1">
          <mxGeometry x="-1674" y="1980" width="30" height="60" as="geometry" />
        </mxCell>
        <mxCell id="LFWVvYf6qhsQMJw6hhTW-15" value="" style="edgeStyle=orthogonalEdgeStyle;rounded=0;orthogonalLoop=1;jettySize=auto;html=1;entryX=0;entryY=0.5;entryDx=0;entryDy=0;" edge="1" parent="1" source="LFWVvYf6qhsQMJw6hhTW-1" target="LFWVvYf6qhsQMJw6hhTW-5">
          <mxGeometry relative="1" as="geometry">
            <mxPoint x="-2334" y="1490" as="sourcePoint" />
            <mxPoint x="-2224" y="1300" as="targetPoint" />
          </mxGeometry>
        </mxCell>
        <mxCell id="LFWVvYf6qhsQMJw6hhTW-16" value="" style="edgeStyle=orthogonalEdgeStyle;rounded=0;orthogonalLoop=1;jettySize=auto;html=1;entryX=0;entryY=0.5;entryDx=0;entryDy=0;" edge="1" parent="1" source="LFWVvYf6qhsQMJw6hhTW-1" target="LFWVvYf6qhsQMJw6hhTW-12">
          <mxGeometry relative="1" as="geometry">
            <mxPoint x="-2334" y="1490" as="sourcePoint" />
            <mxPoint x="-2224" y="1220" as="targetPoint" />
          </mxGeometry>
        </mxCell>
        <mxCell id="LFWVvYf6qhsQMJw6hhTW-17" value="" style="edgeStyle=orthogonalEdgeStyle;rounded=0;orthogonalLoop=1;jettySize=auto;html=1;entryX=0;entryY=0.5;entryDx=0;entryDy=0;exitX=0.5;exitY=0.5;exitDx=0;exitDy=0;exitPerimeter=0;" edge="1" parent="1" source="LFWVvYf6qhsQMJw6hhTW-1" target="LFWVvYf6qhsQMJw6hhTW-10">
          <mxGeometry relative="1" as="geometry">
            <mxPoint x="-2334" y="1490" as="sourcePoint" />
            <mxPoint x="-2220" y="1620" as="targetPoint" />
          </mxGeometry>
        </mxCell>
        <mxCell id="LFWVvYf6qhsQMJw6hhTW-18" value="" style="edgeStyle=orthogonalEdgeStyle;rounded=0;orthogonalLoop=1;jettySize=auto;html=1;entryX=0;entryY=0.5;entryDx=0;entryDy=0;exitX=0.5;exitY=0.5;exitDx=0;exitDy=0;exitPerimeter=0;" edge="1" parent="1" source="LFWVvYf6qhsQMJw6hhTW-1" target="LFWVvYf6qhsQMJw6hhTW-8">
          <mxGeometry relative="1" as="geometry">
            <mxPoint x="-2349" y="1490" as="sourcePoint" />
            <mxPoint x="-2220" y="1460" as="targetPoint" />
          </mxGeometry>
        </mxCell>
        <mxCell id="LFWVvYf6qhsQMJw6hhTW-19" value="" style="edgeStyle=orthogonalEdgeStyle;rounded=0;orthogonalLoop=1;jettySize=auto;html=1;entryX=0;entryY=0.5;entryDx=0;entryDy=0;exitX=0.5;exitY=0.5;exitDx=0;exitDy=0;exitPerimeter=0;" edge="1" parent="1" source="LFWVvYf6qhsQMJw6hhTW-1" target="LFWVvYf6qhsQMJw6hhTW-23">
          <mxGeometry relative="1" as="geometry">
            <mxPoint x="-2349" y="1490" as="sourcePoint" />
            <mxPoint x="-2220" y="1380" as="targetPoint" />
          </mxGeometry>
        </mxCell>
        <mxCell id="LFWVvYf6qhsQMJw6hhTW-22" value="save maze" style="ellipse;whiteSpace=wrap;html=1;" vertex="1" parent="1">
          <mxGeometry x="-2143" y="1660" width="90" height="60" as="geometry" />
        </mxCell>
        <mxCell id="LFWVvYf6qhsQMJw6hhTW-23" value="dir" style="ellipse;whiteSpace=wrap;html=1;" vertex="1" parent="1">
          <mxGeometry x="-2143" y="1740" width="90" height="60" as="geometry" />
        </mxCell>
        <mxCell id="LFWVvYf6qhsQMJw6hhTW-24" value="file size" style="ellipse;whiteSpace=wrap;html=1;" vertex="1" parent="1">
          <mxGeometry x="-2143" y="1820" width="90" height="60" as="geometry" />
        </mxCell>
        <mxCell id="LFWVvYf6qhsQMJw6hhTW-25" value="solve" style="ellipse;whiteSpace=wrap;html=1;" vertex="1" parent="1">
          <mxGeometry x="-2143" y="1980" width="90" height="60" as="geometry" />
        </mxCell>
        <mxCell id="LFWVvYf6qhsQMJw6hhTW-26" value="display solution" style="ellipse;whiteSpace=wrap;html=1;" vertex="1" parent="1">
          <mxGeometry x="-2143" y="1900" width="90" height="60" as="geometry" />
        </mxCell>
        <mxCell id="LFWVvYf6qhsQMJw6hhTW-27" value="generate" style="ellipse;whiteSpace=wrap;html=1;" vertex="1" parent="1">
          <mxGeometry x="-2143" y="2060" width="90" height="60" as="geometry" />
        </mxCell>
        <mxCell id="LFWVvYf6qhsQMJw6hhTW-28" value="" style="edgeStyle=orthogonalEdgeStyle;rounded=0;orthogonalLoop=1;jettySize=auto;html=1;entryX=0;entryY=0.5;entryDx=0;entryDy=0;" edge="1" parent="1" source="LFWVvYf6qhsQMJw6hhTW-1" target="LFWVvYf6qhsQMJw6hhTW-11">
          <mxGeometry relative="1" as="geometry">
            <mxPoint x="-2334" y="1490" as="sourcePoint" />
            <mxPoint x="-2220" y="1620" as="targetPoint" />
          </mxGeometry>
        </mxCell>
        <mxCell id="LFWVvYf6qhsQMJw6hhTW-29" value="" style="edgeStyle=orthogonalEdgeStyle;rounded=0;orthogonalLoop=1;jettySize=auto;html=1;entryX=0;entryY=0.5;entryDx=0;entryDy=0;exitX=0.5;exitY=0.5;exitDx=0;exitDy=0;exitPerimeter=0;" edge="1" parent="1" source="LFWVvYf6qhsQMJw6hhTW-1" target="LFWVvYf6qhsQMJw6hhTW-22">
          <mxGeometry relative="1" as="geometry">
            <mxPoint x="-2334" y="1490" as="sourcePoint" />
            <mxPoint x="-2220" y="1540" as="targetPoint" />
          </mxGeometry>
        </mxCell>
        <mxCell id="LFWVvYf6qhsQMJw6hhTW-30" value="" style="edgeStyle=orthogonalEdgeStyle;rounded=0;orthogonalLoop=1;jettySize=auto;html=1;entryX=0;entryY=0.5;entryDx=0;entryDy=0;exitX=0.5;exitY=0.5;exitDx=0;exitDy=0;exitPerimeter=0;" edge="1" parent="1" source="LFWVvYf6qhsQMJw6hhTW-1" target="LFWVvYf6qhsQMJw6hhTW-24">
          <mxGeometry relative="1" as="geometry">
            <mxPoint x="-2349" y="1490" as="sourcePoint" />
            <mxPoint x="-2220" y="1700" as="targetPoint" />
          </mxGeometry>
        </mxCell>
        <mxCell id="LFWVvYf6qhsQMJw6hhTW-31" value="" style="edgeStyle=orthogonalEdgeStyle;rounded=0;orthogonalLoop=1;jettySize=auto;html=1;entryX=0;entryY=0.5;entryDx=0;entryDy=0;exitX=0.5;exitY=0.5;exitDx=0;exitDy=0;exitPerimeter=0;" edge="1" parent="1" source="LFWVvYf6qhsQMJw6hhTW-1" target="LFWVvYf6qhsQMJw6hhTW-26">
          <mxGeometry relative="1" as="geometry">
            <mxPoint x="-2349" y="1490" as="sourcePoint" />
            <mxPoint x="-2220" y="1860" as="targetPoint" />
          </mxGeometry>
        </mxCell>
        <mxCell id="LFWVvYf6qhsQMJw6hhTW-32" value="" style="edgeStyle=orthogonalEdgeStyle;rounded=0;orthogonalLoop=1;jettySize=auto;html=1;entryX=0;entryY=0.5;entryDx=0;entryDy=0;exitX=0.5;exitY=0.5;exitDx=0;exitDy=0;exitPerimeter=0;" edge="1" parent="1" source="LFWVvYf6qhsQMJw6hhTW-1" target="LFWVvYf6qhsQMJw6hhTW-25">
          <mxGeometry relative="1" as="geometry">
            <mxPoint x="-2349" y="1490" as="sourcePoint" />
            <mxPoint x="-2220" y="1940" as="targetPoint" />
          </mxGeometry>
        </mxCell>
        <mxCell id="LFWVvYf6qhsQMJw6hhTW-33" value="" style="edgeStyle=orthogonalEdgeStyle;rounded=0;orthogonalLoop=1;jettySize=auto;html=1;entryX=0;entryY=0.5;entryDx=0;entryDy=0;exitX=0.5;exitY=0.5;exitDx=0;exitDy=0;exitPerimeter=0;" edge="1" parent="1" source="LFWVvYf6qhsQMJw6hhTW-1" target="LFWVvYf6qhsQMJw6hhTW-27">
          <mxGeometry relative="1" as="geometry">
            <mxPoint x="-2349" y="1490" as="sourcePoint" />
            <mxPoint x="-2220" y="2020" as="targetPoint" />
          </mxGeometry>
        </mxCell>
        <mxCell id="LFWVvYf6qhsQMJw6hhTW-69" value="" style="edgeStyle=orthogonalEdgeStyle;rounded=0;orthogonalLoop=1;jettySize=auto;html=1;entryX=0.288;entryY=0.635;entryDx=0;entryDy=0;entryPerimeter=0;exitDx=0;exitDy=0;" edge="1" parent="1">
          <mxGeometry relative="1" as="geometry">
            <mxPoint x="-1854" y="1610" as="sourcePoint" />
            <mxPoint x="-1854" y="1610" as="targetPoint" />
          </mxGeometry>
        </mxCell>
        <mxCell id="LFWVvYf6qhsQMJw6hhTW-109" value="" style="ellipse;html=1;shape=startState;fillColor=#000000;strokeColor=#0D0000;" vertex="1" parent="1">
          <mxGeometry x="-3561.09" y="50" width="30" height="30" as="geometry" />
        </mxCell>
        <mxCell id="LFWVvYf6qhsQMJw6hhTW-110" value="" style="edgeStyle=orthogonalEdgeStyle;html=1;verticalAlign=bottom;endArrow=open;endSize=8;strokeColor=#0D0000;rounded=0;entryX=0.5;entryY=0;entryDx=0;entryDy=0;" edge="1" parent="1" target="LFWVvYf6qhsQMJw6hhTW-152">
          <mxGeometry relative="1" as="geometry">
            <mxPoint x="-3546.09" y="130" as="targetPoint" />
            <mxPoint x="-3546.09" y="65" as="sourcePoint" />
          </mxGeometry>
        </mxCell>
        <mxCell id="LFWVvYf6qhsQMJw6hhTW-225" value="" style="edgeStyle=orthogonalEdgeStyle;rounded=0;orthogonalLoop=1;jettySize=auto;html=1;" edge="1" parent="1" source="LFWVvYf6qhsQMJw6hhTW-112" target="LFWVvYf6qhsQMJw6hhTW-198">
          <mxGeometry relative="1" as="geometry" />
        </mxCell>
        <mxCell id="LFWVvYf6qhsQMJw6hhTW-112" value="enter name,row,col" style="rounded=1;arcSize=10;whiteSpace=wrap;html=1;align=center;" vertex="1" parent="1">
          <mxGeometry x="-3790.09" y="260" width="120" height="40" as="geometry" />
        </mxCell>
        <mxCell id="LFWVvYf6qhsQMJw6hhTW-154" value="" style="edgeStyle=orthogonalEdgeStyle;rounded=0;orthogonalLoop=1;jettySize=auto;html=1;" edge="1" parent="1" source="LFWVvYf6qhsQMJw6hhTW-117" target="LFWVvYf6qhsQMJw6hhTW-112">
          <mxGeometry relative="1" as="geometry" />
        </mxCell>
        <mxCell id="LFWVvYf6qhsQMJw6hhTW-155" value="yes" style="edgeLabel;html=1;align=center;verticalAlign=middle;resizable=0;points=[];" vertex="1" connectable="0" parent="LFWVvYf6qhsQMJw6hhTW-154">
          <mxGeometry x="-0.3139" y="-3" relative="1" as="geometry">
            <mxPoint x="1" as="offset" />
          </mxGeometry>
        </mxCell>
        <mxCell id="LFWVvYf6qhsQMJw6hhTW-162" value="" style="edgeStyle=orthogonalEdgeStyle;rounded=0;orthogonalLoop=1;jettySize=auto;html=1;" edge="1" parent="1" source="LFWVvYf6qhsQMJw6hhTW-117" target="LFWVvYf6qhsQMJw6hhTW-161">
          <mxGeometry relative="1" as="geometry" />
        </mxCell>
        <mxCell id="LFWVvYf6qhsQMJw6hhTW-163" value="no" style="edgeLabel;html=1;align=center;verticalAlign=middle;resizable=0;points=[];" vertex="1" connectable="0" parent="LFWVvYf6qhsQMJw6hhTW-162">
          <mxGeometry x="-0.3182" y="-3" relative="1" as="geometry">
            <mxPoint y="-11" as="offset" />
          </mxGeometry>
        </mxCell>
        <mxCell id="LFWVvYf6qhsQMJw6hhTW-117" value="generate" style="strokeWidth=2;html=1;shape=mxgraph.flowchart.decision;whiteSpace=wrap;" vertex="1" parent="1">
          <mxGeometry x="-3596.09" y="250" width="100" height="60" as="geometry" />
        </mxCell>
        <mxCell id="LFWVvYf6qhsQMJw6hhTW-118" value="" style="strokeWidth=2;html=1;shape=mxgraph.flowchart.start_2;whiteSpace=wrap;" vertex="1" parent="1">
          <mxGeometry x="-3571.09" y="920" width="40" height="40" as="geometry" />
        </mxCell>
        <mxCell id="LFWVvYf6qhsQMJw6hhTW-119" value="" style="ellipse;html=1;shape=startState;fillColor=#000000;strokeColor=#0D0000;" vertex="1" parent="1">
          <mxGeometry x="-3566.09" y="925" width="30" height="30" as="geometry" />
        </mxCell>
        <mxCell id="LFWVvYf6qhsQMJw6hhTW-153" value="" style="edgeStyle=orthogonalEdgeStyle;rounded=0;orthogonalLoop=1;jettySize=auto;html=1;" edge="1" parent="1" source="LFWVvYf6qhsQMJw6hhTW-152" target="LFWVvYf6qhsQMJw6hhTW-117">
          <mxGeometry relative="1" as="geometry" />
        </mxCell>
        <mxCell id="LFWVvYf6qhsQMJw6hhTW-152" value="recive command" style="rounded=1;arcSize=10;whiteSpace=wrap;html=1;align=center;" vertex="1" parent="1">
          <mxGeometry x="-3596.09" y="140" width="100" height="40" as="geometry" />
        </mxCell>
        <mxCell id="LFWVvYf6qhsQMJw6hhTW-170" value="" style="edgeStyle=orthogonalEdgeStyle;rounded=0;orthogonalLoop=1;jettySize=auto;html=1;entryX=0;entryY=0.5;entryDx=0;entryDy=0;entryPerimeter=0;exitX=0.5;exitY=1;exitDx=0;exitDy=0;" edge="1" parent="1" source="LFWVvYf6qhsQMJw6hhTW-156" target="LFWVvYf6qhsQMJw6hhTW-118">
          <mxGeometry relative="1" as="geometry">
            <mxPoint x="-3730.09" y="537.9999999999998" as="targetPoint" />
          </mxGeometry>
        </mxCell>
        <mxCell id="LFWVvYf6qhsQMJw6hhTW-156" value="generate maze" style="rounded=1;arcSize=10;whiteSpace=wrap;html=1;align=center;" vertex="1" parent="1">
          <mxGeometry x="-3790.09" y="760" width="120" height="40" as="geometry" />
        </mxCell>
        <mxCell id="LFWVvYf6qhsQMJw6hhTW-167" value="" style="edgeStyle=orthogonalEdgeStyle;rounded=0;orthogonalLoop=1;jettySize=auto;html=1;" edge="1" parent="1" source="LFWVvYf6qhsQMJw6hhTW-160">
          <mxGeometry relative="1" as="geometry">
            <mxPoint x="-3360.09" y="497.9999999999998" as="targetPoint" />
          </mxGeometry>
        </mxCell>
        <mxCell id="LFWVvYf6qhsQMJw6hhTW-160" value="enter maze name" style="rounded=1;arcSize=10;whiteSpace=wrap;html=1;align=center;" vertex="1" parent="1">
          <mxGeometry x="-3420.09" y="398" width="120" height="40" as="geometry" />
        </mxCell>
        <mxCell id="LFWVvYf6qhsQMJw6hhTW-164" value="" style="edgeStyle=orthogonalEdgeStyle;rounded=0;orthogonalLoop=1;jettySize=auto;html=1;" edge="1" parent="1" source="LFWVvYf6qhsQMJw6hhTW-161" target="LFWVvYf6qhsQMJw6hhTW-160">
          <mxGeometry relative="1" as="geometry" />
        </mxCell>
        <mxCell id="LFWVvYf6qhsQMJw6hhTW-165" value="yes" style="edgeLabel;html=1;align=center;verticalAlign=middle;resizable=0;points=[];" vertex="1" connectable="0" parent="LFWVvYf6qhsQMJw6hhTW-164">
          <mxGeometry x="-0.017" y="-3" relative="1" as="geometry">
            <mxPoint x="-11" y="1" as="offset" />
          </mxGeometry>
        </mxCell>
        <mxCell id="LFWVvYf6qhsQMJw6hhTW-204" value="" style="edgeStyle=orthogonalEdgeStyle;rounded=0;orthogonalLoop=1;jettySize=auto;html=1;" edge="1" parent="1" source="LFWVvYf6qhsQMJw6hhTW-161" target="LFWVvYf6qhsQMJw6hhTW-203">
          <mxGeometry relative="1" as="geometry" />
        </mxCell>
        <mxCell id="LFWVvYf6qhsQMJw6hhTW-205" value="no" style="edgeLabel;html=1;align=center;verticalAlign=middle;resizable=0;points=[];" vertex="1" connectable="0" parent="LFWVvYf6qhsQMJw6hhTW-204">
          <mxGeometry x="-0.2066" y="-3" relative="1" as="geometry">
            <mxPoint x="-11" y="-12" as="offset" />
          </mxGeometry>
        </mxCell>
        <mxCell id="LFWVvYf6qhsQMJw6hhTW-161" value="display" style="strokeWidth=2;html=1;shape=mxgraph.flowchart.decision;whiteSpace=wrap;" vertex="1" parent="1">
          <mxGeometry x="-3410.09" y="250" width="100" height="60" as="geometry" />
        </mxCell>
        <mxCell id="LFWVvYf6qhsQMJw6hhTW-172" value="" style="edgeStyle=orthogonalEdgeStyle;rounded=0;orthogonalLoop=1;jettySize=auto;html=1;entryX=0.5;entryY=0;entryDx=0;entryDy=0;" edge="1" parent="1" source="LFWVvYf6qhsQMJw6hhTW-168" target="LFWVvYf6qhsQMJw6hhTW-176">
          <mxGeometry relative="1" as="geometry">
            <mxPoint x="-3560.09" y="540" as="targetPoint" />
          </mxGeometry>
        </mxCell>
        <mxCell id="LFWVvYf6qhsQMJw6hhTW-173" value="currect" style="edgeLabel;html=1;align=center;verticalAlign=middle;resizable=0;points=[];" vertex="1" connectable="0" parent="LFWVvYf6qhsQMJw6hhTW-172">
          <mxGeometry x="-0.4093" y="2" relative="1" as="geometry">
            <mxPoint x="-3" y="-11" as="offset" />
          </mxGeometry>
        </mxCell>
        <mxCell id="LFWVvYf6qhsQMJw6hhTW-191" value="" style="edgeStyle=orthogonalEdgeStyle;rounded=0;orthogonalLoop=1;jettySize=auto;html=1;entryX=1;entryY=0.5;entryDx=0;entryDy=0;entryPerimeter=0;exitX=0.5;exitY=1;exitDx=0;exitDy=0;exitPerimeter=0;" edge="1" parent="1" source="LFWVvYf6qhsQMJw6hhTW-168" target="LFWVvYf6qhsQMJw6hhTW-118">
          <mxGeometry relative="1" as="geometry">
            <mxPoint x="-3360.09" y="700" as="targetPoint" />
          </mxGeometry>
        </mxCell>
        <mxCell id="LFWVvYf6qhsQMJw6hhTW-192" value="incurrect" style="edgeLabel;html=1;align=center;verticalAlign=middle;resizable=0;points=[];" vertex="1" connectable="0" parent="LFWVvYf6qhsQMJw6hhTW-191">
          <mxGeometry x="-0.7429" y="6" relative="1" as="geometry">
            <mxPoint x="-30" y="-30" as="offset" />
          </mxGeometry>
        </mxCell>
        <mxCell id="LFWVvYf6qhsQMJw6hhTW-168" value="check maze name" style="strokeWidth=2;html=1;shape=mxgraph.flowchart.decision;whiteSpace=wrap;" vertex="1" parent="1">
          <mxGeometry x="-3420.09" y="500" width="120" height="80" as="geometry" />
        </mxCell>
        <mxCell id="LFWVvYf6qhsQMJw6hhTW-187" value="" style="edgeStyle=orthogonalEdgeStyle;rounded=0;orthogonalLoop=1;jettySize=auto;html=1;entryX=0.5;entryY=0;entryDx=0;entryDy=0;entryPerimeter=0;" edge="1" parent="1" source="LFWVvYf6qhsQMJw6hhTW-176" target="LFWVvYf6qhsQMJw6hhTW-118">
          <mxGeometry relative="1" as="geometry">
            <mxPoint x="-3536.09" y="740" as="targetPoint" />
          </mxGeometry>
        </mxCell>
        <mxCell id="LFWVvYf6qhsQMJw6hhTW-176" value="display maze" style="rounded=1;arcSize=10;whiteSpace=wrap;html=1;align=center;" vertex="1" parent="1">
          <mxGeometry x="-3611.09" y="760" width="120" height="40" as="geometry" />
        </mxCell>
        <mxCell id="LFWVvYf6qhsQMJw6hhTW-401" value="" style="edgeStyle=orthogonalEdgeStyle;rounded=0;orthogonalLoop=1;jettySize=auto;html=1;" edge="1" parent="1" source="LFWVvYf6qhsQMJw6hhTW-177" target="LFWVvYf6qhsQMJw6hhTW-400">
          <mxGeometry relative="1" as="geometry" />
        </mxCell>
        <mxCell id="LFWVvYf6qhsQMJw6hhTW-177" value="enter maze name and algorithm name" style="rounded=1;arcSize=10;whiteSpace=wrap;html=1;align=center;" vertex="1" parent="1">
          <mxGeometry x="-1270" y="400" width="120" height="40" as="geometry" />
        </mxCell>
        <mxCell id="LFWVvYf6qhsQMJw6hhTW-391" value="" style="edgeStyle=orthogonalEdgeStyle;rounded=0;orthogonalLoop=1;jettySize=auto;html=1;" edge="1" parent="1" source="LFWVvYf6qhsQMJw6hhTW-178" target="LFWVvYf6qhsQMJw6hhTW-390">
          <mxGeometry relative="1" as="geometry" />
        </mxCell>
        <mxCell id="LFWVvYf6qhsQMJw6hhTW-178" value="enter maze name" style="rounded=1;arcSize=10;whiteSpace=wrap;html=1;align=center;" vertex="1" parent="1">
          <mxGeometry x="-1520" y="400" width="120" height="40" as="geometry" />
        </mxCell>
        <mxCell id="LFWVvYf6qhsQMJw6hhTW-366" value="" style="edgeStyle=orthogonalEdgeStyle;rounded=0;orthogonalLoop=1;jettySize=auto;html=1;entryX=1;entryY=0.5;entryDx=0;entryDy=0;" edge="1" parent="1" source="LFWVvYf6qhsQMJw6hhTW-179" target="LFWVvYf6qhsQMJw6hhTW-119">
          <mxGeometry relative="1" as="geometry">
            <mxPoint x="-1950" y="902" as="targetPoint" />
            <Array as="points">
              <mxPoint x="-1950" y="940" />
            </Array>
          </mxGeometry>
        </mxCell>
        <mxCell id="LFWVvYf6qhsQMJw6hhTW-179" value="display path files" style="rounded=1;arcSize=10;whiteSpace=wrap;html=1;align=center;" vertex="1" parent="1">
          <mxGeometry x="-2010" y="762" width="120" height="40" as="geometry" />
        </mxCell>
        <mxCell id="LFWVvYf6qhsQMJw6hhTW-331" value="" style="edgeStyle=orthogonalEdgeStyle;rounded=0;orthogonalLoop=1;jettySize=auto;html=1;entryX=1;entryY=0.5;entryDx=0;entryDy=0;entryPerimeter=0;" edge="1" parent="1" source="LFWVvYf6qhsQMJw6hhTW-180" target="LFWVvYf6qhsQMJw6hhTW-118">
          <mxGeometry relative="1" as="geometry">
            <mxPoint x="-2190" y="900" as="targetPoint" />
            <Array as="points">
              <mxPoint x="-2190" y="940" />
            </Array>
          </mxGeometry>
        </mxCell>
        <mxCell id="LFWVvYf6qhsQMJw6hhTW-180" value="load file size" style="rounded=1;arcSize=10;whiteSpace=wrap;html=1;align=center;" vertex="1" parent="1">
          <mxGeometry x="-2250" y="760" width="120" height="40" as="geometry" />
        </mxCell>
        <mxCell id="LFWVvYf6qhsQMJw6hhTW-242" value="" style="edgeStyle=orthogonalEdgeStyle;rounded=0;orthogonalLoop=1;jettySize=auto;html=1;" edge="1" parent="1" source="LFWVvYf6qhsQMJw6hhTW-181">
          <mxGeometry relative="1" as="geometry">
            <mxPoint x="-3531.09" y="940" as="targetPoint" />
            <Array as="points">
              <mxPoint x="-2940.09" y="940" />
              <mxPoint x="-3531.09" y="940" />
            </Array>
          </mxGeometry>
        </mxCell>
        <mxCell id="LFWVvYf6qhsQMJw6hhTW-181" value="load new maze" style="rounded=1;arcSize=10;whiteSpace=wrap;html=1;align=center;" vertex="1" parent="1">
          <mxGeometry x="-3000.09" y="760" width="120" height="40" as="geometry" />
        </mxCell>
        <mxCell id="LFWVvYf6qhsQMJw6hhTW-237" value="" style="edgeStyle=orthogonalEdgeStyle;rounded=0;orthogonalLoop=1;jettySize=auto;html=1;" edge="1" parent="1" source="LFWVvYf6qhsQMJw6hhTW-182" target="LFWVvYf6qhsQMJw6hhTW-236">
          <mxGeometry relative="1" as="geometry" />
        </mxCell>
        <mxCell id="LFWVvYf6qhsQMJw6hhTW-182" value="enter maze name and file name" style="rounded=1;arcSize=10;whiteSpace=wrap;html=1;align=center;" vertex="1" parent="1">
          <mxGeometry x="-3000.09" y="398" width="120" height="40" as="geometry" />
        </mxCell>
        <mxCell id="LFWVvYf6qhsQMJw6hhTW-220" value="" style="edgeStyle=orthogonalEdgeStyle;rounded=0;orthogonalLoop=1;jettySize=auto;html=1;entryX=1;entryY=0.5;entryDx=0;entryDy=0;entryPerimeter=0;" edge="1" parent="1" source="LFWVvYf6qhsQMJw6hhTW-183" target="LFWVvYf6qhsQMJw6hhTW-118">
          <mxGeometry relative="1" as="geometry">
            <mxPoint x="-3180.09" y="900" as="targetPoint" />
            <Array as="points">
              <mxPoint x="-3180.09" y="940" />
            </Array>
          </mxGeometry>
        </mxCell>
        <mxCell id="LFWVvYf6qhsQMJw6hhTW-183" value="save maze to file" style="rounded=1;arcSize=10;whiteSpace=wrap;html=1;align=center;" vertex="1" parent="1">
          <mxGeometry x="-3240.09" y="760" width="120" height="40" as="geometry" />
        </mxCell>
        <mxCell id="LFWVvYf6qhsQMJw6hhTW-208" value="" style="edgeStyle=orthogonalEdgeStyle;rounded=0;orthogonalLoop=1;jettySize=auto;html=1;" edge="1" parent="1" source="LFWVvYf6qhsQMJw6hhTW-184" target="LFWVvYf6qhsQMJw6hhTW-202">
          <mxGeometry relative="1" as="geometry" />
        </mxCell>
        <mxCell id="LFWVvYf6qhsQMJw6hhTW-184" value="enter maze name and file name" style="rounded=1;arcSize=10;whiteSpace=wrap;html=1;align=center;" vertex="1" parent="1">
          <mxGeometry x="-3240.09" y="400" width="120" height="40" as="geometry" />
        </mxCell>
        <mxCell id="LFWVvYf6qhsQMJw6hhTW-297" value="" style="edgeStyle=orthogonalEdgeStyle;rounded=0;orthogonalLoop=1;jettySize=auto;html=1;" edge="1" parent="1" source="LFWVvYf6qhsQMJw6hhTW-196" target="LFWVvYf6qhsQMJw6hhTW-288">
          <mxGeometry relative="1" as="geometry" />
        </mxCell>
        <mxCell id="LFWVvYf6qhsQMJw6hhTW-299" value="yes" style="edgeLabel;html=1;align=center;verticalAlign=middle;resizable=0;points=[];" vertex="1" connectable="0" parent="LFWVvYf6qhsQMJw6hhTW-297">
          <mxGeometry x="-0.2611" y="-10" relative="1" as="geometry">
            <mxPoint y="-1" as="offset" />
          </mxGeometry>
        </mxCell>
        <mxCell id="LFWVvYf6qhsQMJw6hhTW-312" value="" style="edgeStyle=orthogonalEdgeStyle;rounded=0;orthogonalLoop=1;jettySize=auto;html=1;" edge="1" parent="1" source="LFWVvYf6qhsQMJw6hhTW-196" target="LFWVvYf6qhsQMJw6hhTW-311">
          <mxGeometry relative="1" as="geometry" />
        </mxCell>
        <mxCell id="LFWVvYf6qhsQMJw6hhTW-314" value="no" style="edgeLabel;html=1;align=center;verticalAlign=middle;resizable=0;points=[];" vertex="1" connectable="0" parent="LFWVvYf6qhsQMJw6hhTW-312">
          <mxGeometry x="-0.8667" y="4" relative="1" as="geometry">
            <mxPoint as="offset" />
          </mxGeometry>
        </mxCell>
        <mxCell id="LFWVvYf6qhsQMJw6hhTW-196" value="load compress" style="strokeWidth=2;html=1;shape=mxgraph.flowchart.decision;whiteSpace=wrap;" vertex="1" parent="1">
          <mxGeometry x="-2500" y="250" width="100" height="60" as="geometry" />
        </mxCell>
        <mxCell id="LFWVvYf6qhsQMJw6hhTW-278" value="" style="edgeStyle=orthogonalEdgeStyle;rounded=0;orthogonalLoop=1;jettySize=auto;html=1;" edge="1" parent="1" source="LFWVvYf6qhsQMJw6hhTW-197" target="LFWVvYf6qhsQMJw6hhTW-267">
          <mxGeometry relative="1" as="geometry" />
        </mxCell>
        <mxCell id="LFWVvYf6qhsQMJw6hhTW-285" value="" style="edgeStyle=orthogonalEdgeStyle;rounded=0;orthogonalLoop=1;jettySize=auto;html=1;" edge="1" parent="1" target="LFWVvYf6qhsQMJw6hhTW-196">
          <mxGeometry relative="1" as="geometry">
            <mxPoint x="-2657" y="280" as="sourcePoint" />
          </mxGeometry>
        </mxCell>
        <mxCell id="LFWVvYf6qhsQMJw6hhTW-298" value="no" style="edgeLabel;html=1;align=center;verticalAlign=middle;resizable=0;points=[];" vertex="1" connectable="0" parent="LFWVvYf6qhsQMJw6hhTW-285">
          <mxGeometry x="-0.8613" y="12" relative="1" as="geometry">
            <mxPoint as="offset" />
          </mxGeometry>
        </mxCell>
        <mxCell id="LFWVvYf6qhsQMJw6hhTW-197" value="compress" style="strokeWidth=2;html=1;shape=mxgraph.flowchart.decision;whiteSpace=wrap;" vertex="1" parent="1">
          <mxGeometry x="-2757.09" y="250" width="100" height="60" as="geometry" />
        </mxCell>
        <mxCell id="LFWVvYf6qhsQMJw6hhTW-226" value="" style="edgeStyle=orthogonalEdgeStyle;rounded=0;orthogonalLoop=1;jettySize=auto;html=1;" edge="1" parent="1" source="LFWVvYf6qhsQMJw6hhTW-198" target="LFWVvYf6qhsQMJw6hhTW-199">
          <mxGeometry relative="1" as="geometry" />
        </mxCell>
        <mxCell id="LFWVvYf6qhsQMJw6hhTW-227" value="currect" style="edgeLabel;html=1;align=center;verticalAlign=middle;resizable=0;points=[];" vertex="1" connectable="0" parent="LFWVvYf6qhsQMJw6hhTW-226">
          <mxGeometry x="-0.1545" relative="1" as="geometry">
            <mxPoint x="18" y="-1" as="offset" />
          </mxGeometry>
        </mxCell>
        <mxCell id="LFWVvYf6qhsQMJw6hhTW-231" value="" style="edgeStyle=orthogonalEdgeStyle;rounded=0;orthogonalLoop=1;jettySize=auto;html=1;entryX=0;entryY=0.5;entryDx=0;entryDy=0;entryPerimeter=0;" edge="1" parent="1" source="LFWVvYf6qhsQMJw6hhTW-198" target="LFWVvYf6qhsQMJw6hhTW-118">
          <mxGeometry relative="1" as="geometry">
            <mxPoint x="-3860.09" y="945" as="targetPoint" />
            <Array as="points">
              <mxPoint x="-3850.09" y="410" />
              <mxPoint x="-3850.09" y="940" />
            </Array>
          </mxGeometry>
        </mxCell>
        <mxCell id="LFWVvYf6qhsQMJw6hhTW-235" value="incurrect" style="edgeLabel;html=1;align=center;verticalAlign=middle;resizable=0;points=[];" vertex="1" connectable="0" parent="LFWVvYf6qhsQMJw6hhTW-231">
          <mxGeometry x="-0.9365" y="-9" relative="1" as="geometry">
            <mxPoint as="offset" />
          </mxGeometry>
        </mxCell>
        <mxCell id="LFWVvYf6qhsQMJw6hhTW-198" value="check name maze" style="strokeWidth=2;html=1;shape=mxgraph.flowchart.decision;whiteSpace=wrap;" vertex="1" parent="1">
          <mxGeometry x="-3785.09" y="370" width="110" height="80" as="geometry" />
        </mxCell>
        <mxCell id="LFWVvYf6qhsQMJw6hhTW-228" value="" style="edgeStyle=orthogonalEdgeStyle;rounded=0;orthogonalLoop=1;jettySize=auto;html=1;" edge="1" parent="1" source="LFWVvYf6qhsQMJw6hhTW-199" target="LFWVvYf6qhsQMJw6hhTW-156">
          <mxGeometry relative="1" as="geometry" />
        </mxCell>
        <mxCell id="LFWVvYf6qhsQMJw6hhTW-229" value="currect" style="edgeLabel;html=1;align=center;verticalAlign=middle;resizable=0;points=[];" vertex="1" connectable="0" parent="LFWVvYf6qhsQMJw6hhTW-228">
          <mxGeometry x="-0.085" y="7" relative="1" as="geometry">
            <mxPoint x="13" y="24" as="offset" />
          </mxGeometry>
        </mxCell>
        <mxCell id="LFWVvYf6qhsQMJw6hhTW-233" value="" style="edgeStyle=orthogonalEdgeStyle;rounded=0;orthogonalLoop=1;jettySize=auto;html=1;entryX=0;entryY=0.5;entryDx=0;entryDy=0;entryPerimeter=0;" edge="1" parent="1" source="LFWVvYf6qhsQMJw6hhTW-199" target="LFWVvYf6qhsQMJw6hhTW-118">
          <mxGeometry relative="1" as="geometry">
            <mxPoint x="-3930.09" y="620" as="targetPoint" />
            <Array as="points">
              <mxPoint x="-3850.09" y="620" />
              <mxPoint x="-3850.09" y="940" />
            </Array>
          </mxGeometry>
        </mxCell>
        <mxCell id="LFWVvYf6qhsQMJw6hhTW-234" value="incurrect" style="edgeLabel;html=1;align=center;verticalAlign=middle;resizable=0;points=[];" vertex="1" connectable="0" parent="LFWVvYf6qhsQMJw6hhTW-233">
          <mxGeometry x="-0.9082" y="-7" relative="1" as="geometry">
            <mxPoint as="offset" />
          </mxGeometry>
        </mxCell>
        <mxCell id="LFWVvYf6qhsQMJw6hhTW-199" value="check row and col" style="strokeWidth=2;html=1;shape=mxgraph.flowchart.decision;whiteSpace=wrap;" vertex="1" parent="1">
          <mxGeometry x="-3790.09" y="580" width="120" height="80" as="geometry" />
        </mxCell>
        <mxCell id="LFWVvYf6qhsQMJw6hhTW-223" value="" style="edgeStyle=orthogonalEdgeStyle;rounded=0;orthogonalLoop=1;jettySize=auto;html=1;" edge="1" parent="1" source="LFWVvYf6qhsQMJw6hhTW-200" target="LFWVvYf6qhsQMJw6hhTW-182">
          <mxGeometry relative="1" as="geometry" />
        </mxCell>
        <mxCell id="LFWVvYf6qhsQMJw6hhTW-224" value="yes" style="edgeLabel;html=1;align=center;verticalAlign=middle;resizable=0;points=[];" vertex="1" connectable="0" parent="LFWVvYf6qhsQMJw6hhTW-223">
          <mxGeometry x="-0.4148" y="3" relative="1" as="geometry">
            <mxPoint x="-15" y="-1" as="offset" />
          </mxGeometry>
        </mxCell>
        <mxCell id="LFWVvYf6qhsQMJw6hhTW-251" value="" style="edgeStyle=orthogonalEdgeStyle;rounded=0;orthogonalLoop=1;jettySize=auto;html=1;" edge="1" parent="1" source="LFWVvYf6qhsQMJw6hhTW-200" target="LFWVvYf6qhsQMJw6hhTW-197">
          <mxGeometry relative="1" as="geometry" />
        </mxCell>
        <mxCell id="LFWVvYf6qhsQMJw6hhTW-252" value="no" style="edgeLabel;html=1;align=center;verticalAlign=middle;resizable=0;points=[];" vertex="1" connectable="0" parent="LFWVvYf6qhsQMJw6hhTW-251">
          <mxGeometry x="-0.8114" y="5" relative="1" as="geometry">
            <mxPoint as="offset" />
          </mxGeometry>
        </mxCell>
        <mxCell id="LFWVvYf6qhsQMJw6hhTW-200" value="load maze" style="strokeWidth=2;html=1;shape=mxgraph.flowchart.decision;whiteSpace=wrap;" vertex="1" parent="1">
          <mxGeometry x="-2990.09" y="250" width="100" height="60" as="geometry" />
        </mxCell>
        <mxCell id="LFWVvYf6qhsQMJw6hhTW-211" value="" style="edgeStyle=orthogonalEdgeStyle;rounded=0;orthogonalLoop=1;jettySize=auto;html=1;" edge="1" parent="1" source="LFWVvYf6qhsQMJw6hhTW-201" target="LFWVvYf6qhsQMJw6hhTW-183">
          <mxGeometry relative="1" as="geometry" />
        </mxCell>
        <mxCell id="LFWVvYf6qhsQMJw6hhTW-212" value="yes" style="edgeLabel;html=1;align=center;verticalAlign=middle;resizable=0;points=[];" vertex="1" connectable="0" parent="LFWVvYf6qhsQMJw6hhTW-211">
          <mxGeometry x="-0.2116" y="3" relative="1" as="geometry">
            <mxPoint x="-16" y="2" as="offset" />
          </mxGeometry>
        </mxCell>
        <mxCell id="LFWVvYf6qhsQMJw6hhTW-217" value="" style="edgeStyle=orthogonalEdgeStyle;rounded=0;orthogonalLoop=1;jettySize=auto;html=1;entryX=1;entryY=0.5;entryDx=0;entryDy=0;entryPerimeter=0;" edge="1" parent="1" source="LFWVvYf6qhsQMJw6hhTW-201" target="LFWVvYf6qhsQMJw6hhTW-118">
          <mxGeometry relative="1" as="geometry">
            <mxPoint x="-3000.09" y="670" as="targetPoint" />
            <Array as="points">
              <mxPoint x="-3070.09" y="670" />
              <mxPoint x="-3070.09" y="940" />
            </Array>
          </mxGeometry>
        </mxCell>
        <mxCell id="LFWVvYf6qhsQMJw6hhTW-218" value="no" style="edgeLabel;html=1;align=center;verticalAlign=middle;resizable=0;points=[];" vertex="1" connectable="0" parent="LFWVvYf6qhsQMJw6hhTW-217">
          <mxGeometry x="-0.9406" y="1" relative="1" as="geometry">
            <mxPoint y="-7" as="offset" />
          </mxGeometry>
        </mxCell>
        <mxCell id="LFWVvYf6qhsQMJw6hhTW-201" value="file open" style="strokeWidth=2;html=1;shape=mxgraph.flowchart.decision;whiteSpace=wrap;" vertex="1" parent="1">
          <mxGeometry x="-3230.09" y="640" width="100" height="60" as="geometry" />
        </mxCell>
        <mxCell id="LFWVvYf6qhsQMJw6hhTW-209" value="" style="edgeStyle=orthogonalEdgeStyle;rounded=0;orthogonalLoop=1;jettySize=auto;html=1;" edge="1" parent="1" source="LFWVvYf6qhsQMJw6hhTW-202" target="LFWVvYf6qhsQMJw6hhTW-201">
          <mxGeometry relative="1" as="geometry" />
        </mxCell>
        <mxCell id="LFWVvYf6qhsQMJw6hhTW-210" value="currect" style="edgeLabel;html=1;align=center;verticalAlign=middle;resizable=0;points=[];" vertex="1" connectable="0" parent="LFWVvYf6qhsQMJw6hhTW-209">
          <mxGeometry x="0.1362" y="1" relative="1" as="geometry">
            <mxPoint x="-21" y="-24" as="offset" />
          </mxGeometry>
        </mxCell>
        <mxCell id="LFWVvYf6qhsQMJw6hhTW-214" value="" style="edgeStyle=orthogonalEdgeStyle;rounded=0;orthogonalLoop=1;jettySize=auto;html=1;entryX=1;entryY=0.5;entryDx=0;entryDy=0;entryPerimeter=0;" edge="1" parent="1" source="LFWVvYf6qhsQMJw6hhTW-202" target="LFWVvYf6qhsQMJw6hhTW-118">
          <mxGeometry relative="1" as="geometry">
            <mxPoint x="-2960.09" y="945" as="targetPoint" />
            <Array as="points">
              <mxPoint x="-3070.09" y="540" />
              <mxPoint x="-3070.09" y="940" />
            </Array>
          </mxGeometry>
        </mxCell>
        <mxCell id="LFWVvYf6qhsQMJw6hhTW-215" value="incurrect" style="edgeLabel;html=1;align=center;verticalAlign=middle;resizable=0;points=[];" vertex="1" connectable="0" parent="LFWVvYf6qhsQMJw6hhTW-214">
          <mxGeometry x="-0.9509" y="-2" relative="1" as="geometry">
            <mxPoint as="offset" />
          </mxGeometry>
        </mxCell>
        <mxCell id="LFWVvYf6qhsQMJw6hhTW-202" value="check maze name" style="strokeWidth=2;html=1;shape=mxgraph.flowchart.decision;whiteSpace=wrap;" vertex="1" parent="1">
          <mxGeometry x="-3235.09" y="500" width="110" height="80" as="geometry" />
        </mxCell>
        <mxCell id="LFWVvYf6qhsQMJw6hhTW-206" value="" style="edgeStyle=orthogonalEdgeStyle;rounded=0;orthogonalLoop=1;jettySize=auto;html=1;" edge="1" parent="1" source="LFWVvYf6qhsQMJw6hhTW-203" target="LFWVvYf6qhsQMJw6hhTW-184">
          <mxGeometry relative="1" as="geometry" />
        </mxCell>
        <mxCell id="LFWVvYf6qhsQMJw6hhTW-207" value="yes" style="edgeLabel;html=1;align=center;verticalAlign=middle;resizable=0;points=[];" vertex="1" connectable="0" parent="LFWVvYf6qhsQMJw6hhTW-206">
          <mxGeometry x="-0.0589" y="-2" relative="1" as="geometry">
            <mxPoint x="-11" as="offset" />
          </mxGeometry>
        </mxCell>
        <mxCell id="LFWVvYf6qhsQMJw6hhTW-221" value="" style="edgeStyle=orthogonalEdgeStyle;rounded=0;orthogonalLoop=1;jettySize=auto;html=1;" edge="1" parent="1" source="LFWVvYf6qhsQMJw6hhTW-203" target="LFWVvYf6qhsQMJw6hhTW-200">
          <mxGeometry relative="1" as="geometry" />
        </mxCell>
        <mxCell id="LFWVvYf6qhsQMJw6hhTW-222" value="no" style="edgeLabel;html=1;align=center;verticalAlign=middle;resizable=0;points=[];" vertex="1" connectable="0" parent="LFWVvYf6qhsQMJw6hhTW-221">
          <mxGeometry x="-0.28" y="6" relative="1" as="geometry">
            <mxPoint as="offset" />
          </mxGeometry>
        </mxCell>
        <mxCell id="LFWVvYf6qhsQMJw6hhTW-203" value="save maze" style="strokeWidth=2;html=1;shape=mxgraph.flowchart.decision;whiteSpace=wrap;" vertex="1" parent="1">
          <mxGeometry x="-3230.09" y="250" width="100" height="60" as="geometry" />
        </mxCell>
        <mxCell id="LFWVvYf6qhsQMJw6hhTW-239" value="" style="edgeStyle=orthogonalEdgeStyle;rounded=0;orthogonalLoop=1;jettySize=auto;html=1;" edge="1" parent="1" source="LFWVvYf6qhsQMJw6hhTW-236" target="LFWVvYf6qhsQMJw6hhTW-238">
          <mxGeometry relative="1" as="geometry" />
        </mxCell>
        <mxCell id="LFWVvYf6qhsQMJw6hhTW-244" value="not taken" style="edgeLabel;html=1;align=center;verticalAlign=middle;resizable=0;points=[];" vertex="1" connectable="0" parent="LFWVvYf6qhsQMJw6hhTW-239">
          <mxGeometry x="-0.6333" y="8" relative="1" as="geometry">
            <mxPoint x="-28" y="-1" as="offset" />
          </mxGeometry>
        </mxCell>
        <mxCell id="LFWVvYf6qhsQMJw6hhTW-246" value="" style="edgeStyle=orthogonalEdgeStyle;rounded=0;orthogonalLoop=1;jettySize=auto;html=1;entryX=1;entryY=0.5;entryDx=0;entryDy=0;entryPerimeter=0;" edge="1" parent="1" source="LFWVvYf6qhsQMJw6hhTW-236" target="LFWVvYf6qhsQMJw6hhTW-118">
          <mxGeometry relative="1" as="geometry">
            <mxPoint x="-2750.09" y="540" as="targetPoint" />
            <Array as="points">
              <mxPoint x="-2830.09" y="540" />
              <mxPoint x="-2830.09" y="940" />
            </Array>
          </mxGeometry>
        </mxCell>
        <mxCell id="LFWVvYf6qhsQMJw6hhTW-247" value="&amp;nbsp;taken" style="edgeLabel;html=1;align=center;verticalAlign=middle;resizable=0;points=[];" vertex="1" connectable="0" parent="LFWVvYf6qhsQMJw6hhTW-246">
          <mxGeometry x="-0.9446" y="1" relative="1" as="geometry">
            <mxPoint x="-17" y="-9" as="offset" />
          </mxGeometry>
        </mxCell>
        <mxCell id="LFWVvYf6qhsQMJw6hhTW-236" value="check maze name" style="strokeWidth=2;html=1;shape=mxgraph.flowchart.decision;whiteSpace=wrap;" vertex="1" parent="1">
          <mxGeometry x="-2995.09" y="500" width="110" height="80" as="geometry" />
        </mxCell>
        <mxCell id="LFWVvYf6qhsQMJw6hhTW-240" value="" style="edgeStyle=orthogonalEdgeStyle;rounded=0;orthogonalLoop=1;jettySize=auto;html=1;" edge="1" parent="1" source="LFWVvYf6qhsQMJw6hhTW-238" target="LFWVvYf6qhsQMJw6hhTW-181">
          <mxGeometry relative="1" as="geometry" />
        </mxCell>
        <mxCell id="LFWVvYf6qhsQMJw6hhTW-249" value="" style="edgeStyle=orthogonalEdgeStyle;rounded=0;orthogonalLoop=1;jettySize=auto;html=1;entryX=1;entryY=0.5;entryDx=0;entryDy=0;entryPerimeter=0;" edge="1" parent="1" source="LFWVvYf6qhsQMJw6hhTW-238" target="LFWVvYf6qhsQMJw6hhTW-118">
          <mxGeometry relative="1" as="geometry">
            <mxPoint x="-2760.09" y="670" as="targetPoint" />
            <Array as="points">
              <mxPoint x="-2830.09" y="670" />
              <mxPoint x="-2830.09" y="940" />
            </Array>
          </mxGeometry>
        </mxCell>
        <mxCell id="LFWVvYf6qhsQMJw6hhTW-250" value="no" style="edgeLabel;html=1;align=center;verticalAlign=middle;resizable=0;points=[];" vertex="1" connectable="0" parent="LFWVvYf6qhsQMJw6hhTW-249">
          <mxGeometry x="-0.9732" y="4" relative="1" as="geometry">
            <mxPoint as="offset" />
          </mxGeometry>
        </mxCell>
        <mxCell id="LFWVvYf6qhsQMJw6hhTW-238" value="file open" style="strokeWidth=2;html=1;shape=mxgraph.flowchart.decision;whiteSpace=wrap;" vertex="1" parent="1">
          <mxGeometry x="-2990.09" y="640" width="100" height="60" as="geometry" />
        </mxCell>
        <mxCell id="LFWVvYf6qhsQMJw6hhTW-243" value="yes" style="text;html=1;align=center;verticalAlign=middle;resizable=0;points=[];autosize=1;strokeColor=none;fillColor=none;" vertex="1" parent="1">
          <mxGeometry x="-2950.09" y="698" width="40" height="30" as="geometry" />
        </mxCell>
        <mxCell id="LFWVvYf6qhsQMJw6hhTW-280" value="" style="edgeStyle=orthogonalEdgeStyle;rounded=0;orthogonalLoop=1;jettySize=auto;html=1;entryX=1;entryY=0.5;entryDx=0;entryDy=0;entryPerimeter=0;" edge="1" parent="1" source="LFWVvYf6qhsQMJw6hhTW-265" target="LFWVvYf6qhsQMJw6hhTW-118">
          <mxGeometry relative="1" as="geometry">
            <mxPoint x="-2706.88" y="900" as="targetPoint" />
            <Array as="points">
              <mxPoint x="-2707.09" y="940" />
            </Array>
          </mxGeometry>
        </mxCell>
        <mxCell id="LFWVvYf6qhsQMJw6hhTW-265" value="compress maze to file" style="rounded=1;arcSize=10;whiteSpace=wrap;html=1;align=center;" vertex="1" parent="1">
          <mxGeometry x="-2766.88" y="760" width="120" height="40" as="geometry" />
        </mxCell>
        <mxCell id="LFWVvYf6qhsQMJw6hhTW-266" value="" style="edgeStyle=orthogonalEdgeStyle;rounded=0;orthogonalLoop=1;jettySize=auto;html=1;" edge="1" parent="1" source="LFWVvYf6qhsQMJw6hhTW-267" target="LFWVvYf6qhsQMJw6hhTW-272">
          <mxGeometry relative="1" as="geometry" />
        </mxCell>
        <mxCell id="LFWVvYf6qhsQMJw6hhTW-267" value="enter maze name and file name" style="rounded=1;arcSize=10;whiteSpace=wrap;html=1;align=center;" vertex="1" parent="1">
          <mxGeometry x="-2766.88" y="398" width="120" height="40" as="geometry" />
        </mxCell>
        <mxCell id="LFWVvYf6qhsQMJw6hhTW-268" value="yes" style="edgeLabel;html=1;align=center;verticalAlign=middle;resizable=0;points=[];" vertex="1" connectable="0" parent="1">
          <mxGeometry x="-2723.88" y="334.2631578947369" as="geometry" />
        </mxCell>
        <mxCell id="LFWVvYf6qhsQMJw6hhTW-269" value="" style="edgeStyle=orthogonalEdgeStyle;rounded=0;orthogonalLoop=1;jettySize=auto;html=1;" edge="1" parent="1" source="LFWVvYf6qhsQMJw6hhTW-272" target="LFWVvYf6qhsQMJw6hhTW-275">
          <mxGeometry relative="1" as="geometry" />
        </mxCell>
        <mxCell id="LFWVvYf6qhsQMJw6hhTW-270" value="currect" style="edgeLabel;html=1;align=center;verticalAlign=middle;resizable=0;points=[];" vertex="1" connectable="0" parent="LFWVvYf6qhsQMJw6hhTW-269">
          <mxGeometry x="-0.6333" y="8" relative="1" as="geometry">
            <mxPoint x="-28" y="-1" as="offset" />
          </mxGeometry>
        </mxCell>
        <mxCell id="LFWVvYf6qhsQMJw6hhTW-271" value="incurrect" style="edgeLabel;html=1;align=center;verticalAlign=middle;resizable=0;points=[];" vertex="1" connectable="0" parent="1">
          <mxGeometry x="-2619.3010526315793" y="530.0526315789473" as="geometry">
            <mxPoint x="-8" as="offset" />
          </mxGeometry>
        </mxCell>
        <mxCell id="LFWVvYf6qhsQMJw6hhTW-282" value="" style="edgeStyle=orthogonalEdgeStyle;rounded=0;orthogonalLoop=1;jettySize=auto;html=1;entryX=1;entryY=0.5;entryDx=0;entryDy=0;entryPerimeter=0;" edge="1" parent="1" source="LFWVvYf6qhsQMJw6hhTW-272" target="LFWVvYf6qhsQMJw6hhTW-118">
          <mxGeometry relative="1" as="geometry">
            <mxPoint x="-2517.09" y="540" as="targetPoint" />
            <Array as="points">
              <mxPoint x="-2590.09" y="540" />
              <mxPoint x="-2590.09" y="940" />
            </Array>
          </mxGeometry>
        </mxCell>
        <mxCell id="LFWVvYf6qhsQMJw6hhTW-272" value="check maze name" style="strokeWidth=2;html=1;shape=mxgraph.flowchart.decision;whiteSpace=wrap;" vertex="1" parent="1">
          <mxGeometry x="-2762.09" y="500" width="110" height="80" as="geometry" />
        </mxCell>
        <mxCell id="LFWVvYf6qhsQMJw6hhTW-273" value="" style="edgeStyle=orthogonalEdgeStyle;rounded=0;orthogonalLoop=1;jettySize=auto;html=1;" edge="1" parent="1" source="LFWVvYf6qhsQMJw6hhTW-275" target="LFWVvYf6qhsQMJw6hhTW-265">
          <mxGeometry relative="1" as="geometry" />
        </mxCell>
        <mxCell id="LFWVvYf6qhsQMJw6hhTW-274" value="no" style="edgeLabel;html=1;align=center;verticalAlign=middle;resizable=0;points=[];" vertex="1" connectable="0" parent="1">
          <mxGeometry x="-2648.1957894736843" y="666.0526315789473" as="geometry" />
        </mxCell>
        <mxCell id="LFWVvYf6qhsQMJw6hhTW-284" value="" style="edgeStyle=orthogonalEdgeStyle;rounded=0;orthogonalLoop=1;jettySize=auto;html=1;entryX=1;entryY=0.5;entryDx=0;entryDy=0;entryPerimeter=0;" edge="1" parent="1" source="LFWVvYf6qhsQMJw6hhTW-275" target="LFWVvYf6qhsQMJw6hhTW-118">
          <mxGeometry relative="1" as="geometry">
            <mxPoint x="-2526.88" y="670" as="targetPoint" />
            <Array as="points">
              <mxPoint x="-2590.09" y="670" />
              <mxPoint x="-2590.09" y="940" />
            </Array>
          </mxGeometry>
        </mxCell>
        <mxCell id="LFWVvYf6qhsQMJw6hhTW-275" value="file open" style="strokeWidth=2;html=1;shape=mxgraph.flowchart.decision;whiteSpace=wrap;" vertex="1" parent="1">
          <mxGeometry x="-2756.88" y="640" width="100" height="60" as="geometry" />
        </mxCell>
        <mxCell id="LFWVvYf6qhsQMJw6hhTW-276" value="yes" style="text;html=1;align=center;verticalAlign=middle;resizable=0;points=[];autosize=1;strokeColor=none;fillColor=none;" vertex="1" parent="1">
          <mxGeometry x="-2737.88" y="698" width="40" height="30" as="geometry" />
        </mxCell>
        <mxCell id="LFWVvYf6qhsQMJw6hhTW-301" value="" style="edgeStyle=orthogonalEdgeStyle;rounded=0;orthogonalLoop=1;jettySize=auto;html=1;entryX=1;entryY=0.5;entryDx=0;entryDy=0;entryPerimeter=0;" edge="1" parent="1" source="LFWVvYf6qhsQMJw6hhTW-286" target="LFWVvYf6qhsQMJw6hhTW-118">
          <mxGeometry relative="1" as="geometry">
            <mxPoint x="-2450" y="902" as="targetPoint" />
            <Array as="points">
              <mxPoint x="-2450" y="940" />
            </Array>
          </mxGeometry>
        </mxCell>
        <mxCell id="LFWVvYf6qhsQMJw6hhTW-286" value="load new maze" style="rounded=1;arcSize=10;whiteSpace=wrap;html=1;align=center;" vertex="1" parent="1">
          <mxGeometry x="-2510" y="762" width="120" height="40" as="geometry" />
        </mxCell>
        <mxCell id="LFWVvYf6qhsQMJw6hhTW-287" value="" style="edgeStyle=orthogonalEdgeStyle;rounded=0;orthogonalLoop=1;jettySize=auto;html=1;" edge="1" parent="1" source="LFWVvYf6qhsQMJw6hhTW-288" target="LFWVvYf6qhsQMJw6hhTW-292">
          <mxGeometry relative="1" as="geometry" />
        </mxCell>
        <mxCell id="LFWVvYf6qhsQMJw6hhTW-288" value="enter maze name and file name" style="rounded=1;arcSize=10;whiteSpace=wrap;html=1;align=center;" vertex="1" parent="1">
          <mxGeometry x="-2510" y="400" width="120" height="40" as="geometry" />
        </mxCell>
        <mxCell id="LFWVvYf6qhsQMJw6hhTW-289" value="" style="edgeStyle=orthogonalEdgeStyle;rounded=0;orthogonalLoop=1;jettySize=auto;html=1;" edge="1" parent="1" source="LFWVvYf6qhsQMJw6hhTW-292" target="LFWVvYf6qhsQMJw6hhTW-295">
          <mxGeometry relative="1" as="geometry" />
        </mxCell>
        <mxCell id="LFWVvYf6qhsQMJw6hhTW-290" value="not taken" style="edgeLabel;html=1;align=center;verticalAlign=middle;resizable=0;points=[];" vertex="1" connectable="0" parent="LFWVvYf6qhsQMJw6hhTW-289">
          <mxGeometry x="-0.6333" y="8" relative="1" as="geometry">
            <mxPoint x="-28" y="-1" as="offset" />
          </mxGeometry>
        </mxCell>
        <mxCell id="LFWVvYf6qhsQMJw6hhTW-291" value="&amp;nbsp;taken" style="edgeLabel;html=1;align=center;verticalAlign=middle;resizable=0;points=[];" vertex="1" connectable="0" parent="1">
          <mxGeometry x="-2379.5" y="532" as="geometry" />
        </mxCell>
        <mxCell id="LFWVvYf6qhsQMJw6hhTW-303" value="" style="edgeStyle=orthogonalEdgeStyle;rounded=0;orthogonalLoop=1;jettySize=auto;html=1;entryX=1;entryY=0.5;entryDx=0;entryDy=0;entryPerimeter=0;" edge="1" parent="1" source="LFWVvYf6qhsQMJw6hhTW-292" target="LFWVvYf6qhsQMJw6hhTW-118">
          <mxGeometry relative="1" as="geometry">
            <mxPoint x="-2260" y="542" as="targetPoint" />
            <Array as="points">
              <mxPoint x="-2330" y="542" />
              <mxPoint x="-2330" y="940" />
            </Array>
          </mxGeometry>
        </mxCell>
        <mxCell id="LFWVvYf6qhsQMJw6hhTW-292" value="check maze name" style="strokeWidth=2;html=1;shape=mxgraph.flowchart.decision;whiteSpace=wrap;" vertex="1" parent="1">
          <mxGeometry x="-2505" y="502" width="110" height="80" as="geometry" />
        </mxCell>
        <mxCell id="LFWVvYf6qhsQMJw6hhTW-293" value="" style="edgeStyle=orthogonalEdgeStyle;rounded=0;orthogonalLoop=1;jettySize=auto;html=1;" edge="1" parent="1" source="LFWVvYf6qhsQMJw6hhTW-295" target="LFWVvYf6qhsQMJw6hhTW-286">
          <mxGeometry relative="1" as="geometry" />
        </mxCell>
        <mxCell id="LFWVvYf6qhsQMJw6hhTW-294" value="no" style="edgeLabel;html=1;align=center;verticalAlign=middle;resizable=0;points=[];" vertex="1" connectable="0" parent="1">
          <mxGeometry x="-2386.25" y="668" as="geometry" />
        </mxCell>
        <mxCell id="LFWVvYf6qhsQMJw6hhTW-305" value="" style="edgeStyle=orthogonalEdgeStyle;rounded=0;orthogonalLoop=1;jettySize=auto;html=1;entryX=1;entryY=0.5;entryDx=0;entryDy=0;entryPerimeter=0;" edge="1" parent="1" source="LFWVvYf6qhsQMJw6hhTW-295" target="LFWVvYf6qhsQMJw6hhTW-118">
          <mxGeometry relative="1" as="geometry">
            <mxPoint x="-2270" y="672" as="targetPoint" />
            <Array as="points">
              <mxPoint x="-2330" y="672" />
              <mxPoint x="-2330" y="940" />
            </Array>
          </mxGeometry>
        </mxCell>
        <mxCell id="LFWVvYf6qhsQMJw6hhTW-295" value="file open" style="strokeWidth=2;html=1;shape=mxgraph.flowchart.decision;whiteSpace=wrap;" vertex="1" parent="1">
          <mxGeometry x="-2500" y="642" width="100" height="60" as="geometry" />
        </mxCell>
        <mxCell id="LFWVvYf6qhsQMJw6hhTW-296" value="yes" style="text;html=1;align=center;verticalAlign=middle;resizable=0;points=[];autosize=1;strokeColor=none;fillColor=none;" vertex="1" parent="1">
          <mxGeometry x="-2460" y="700" width="40" height="30" as="geometry" />
        </mxCell>
        <mxCell id="LFWVvYf6qhsQMJw6hhTW-397" value="" style="edgeStyle=orthogonalEdgeStyle;rounded=0;orthogonalLoop=1;jettySize=auto;html=1;" edge="1" parent="1" source="LFWVvYf6qhsQMJw6hhTW-306" target="LFWVvYf6qhsQMJw6hhTW-177">
          <mxGeometry relative="1" as="geometry" />
        </mxCell>
        <mxCell id="LFWVvYf6qhsQMJw6hhTW-416" value="yes" style="edgeLabel;html=1;align=center;verticalAlign=middle;resizable=0;points=[];" vertex="1" connectable="0" parent="LFWVvYf6qhsQMJw6hhTW-397">
          <mxGeometry x="-0.7128" y="-11" relative="1" as="geometry">
            <mxPoint y="1" as="offset" />
          </mxGeometry>
        </mxCell>
        <mxCell id="LFWVvYf6qhsQMJw6hhTW-417" value="" style="edgeStyle=orthogonalEdgeStyle;rounded=0;orthogonalLoop=1;jettySize=auto;html=1;" edge="1" parent="1" source="LFWVvYf6qhsQMJw6hhTW-306" target="LFWVvYf6qhsQMJw6hhTW-403">
          <mxGeometry relative="1" as="geometry" />
        </mxCell>
        <mxCell id="LFWVvYf6qhsQMJw6hhTW-306" value="solve" style="strokeWidth=2;html=1;shape=mxgraph.flowchart.decision;whiteSpace=wrap;" vertex="1" parent="1">
          <mxGeometry x="-1260" y="250" width="100" height="60" as="geometry" />
        </mxCell>
        <mxCell id="LFWVvYf6qhsQMJw6hhTW-377" value="" style="edgeStyle=orthogonalEdgeStyle;rounded=0;orthogonalLoop=1;jettySize=auto;html=1;" edge="1" parent="1" source="LFWVvYf6qhsQMJw6hhTW-307" target="LFWVvYf6qhsQMJw6hhTW-372">
          <mxGeometry relative="1" as="geometry" />
        </mxCell>
        <mxCell id="LFWVvYf6qhsQMJw6hhTW-384" value="yes" style="edgeLabel;html=1;align=center;verticalAlign=middle;resizable=0;points=[];" vertex="1" connectable="0" parent="LFWVvYf6qhsQMJw6hhTW-377">
          <mxGeometry x="-0.5807" y="-7" relative="1" as="geometry">
            <mxPoint as="offset" />
          </mxGeometry>
        </mxCell>
        <mxCell id="LFWVvYf6qhsQMJw6hhTW-382" value="" style="edgeStyle=orthogonalEdgeStyle;rounded=0;orthogonalLoop=1;jettySize=auto;html=1;" edge="1" parent="1" source="LFWVvYf6qhsQMJw6hhTW-307" target="LFWVvYf6qhsQMJw6hhTW-308">
          <mxGeometry relative="1" as="geometry" />
        </mxCell>
        <mxCell id="LFWVvYf6qhsQMJw6hhTW-307" value="maze size" style="strokeWidth=2;html=1;shape=mxgraph.flowchart.decision;whiteSpace=wrap;" vertex="1" parent="1">
          <mxGeometry x="-1754" y="250" width="100" height="60" as="geometry" />
        </mxCell>
        <mxCell id="LFWVvYf6qhsQMJw6hhTW-383" value="" style="edgeStyle=orthogonalEdgeStyle;rounded=0;orthogonalLoop=1;jettySize=auto;html=1;" edge="1" parent="1" source="LFWVvYf6qhsQMJw6hhTW-308">
          <mxGeometry relative="1" as="geometry">
            <mxPoint x="-1460" y="400" as="targetPoint" />
          </mxGeometry>
        </mxCell>
        <mxCell id="LFWVvYf6qhsQMJw6hhTW-385" value="yes" style="edgeLabel;html=1;align=center;verticalAlign=middle;resizable=0;points=[];" vertex="1" connectable="0" parent="LFWVvYf6qhsQMJw6hhTW-383">
          <mxGeometry x="-0.5827" y="-7" relative="1" as="geometry">
            <mxPoint as="offset" />
          </mxGeometry>
        </mxCell>
        <mxCell id="LFWVvYf6qhsQMJw6hhTW-396" value="" style="edgeStyle=orthogonalEdgeStyle;rounded=0;orthogonalLoop=1;jettySize=auto;html=1;" edge="1" parent="1" source="LFWVvYf6qhsQMJw6hhTW-308" target="LFWVvYf6qhsQMJw6hhTW-306">
          <mxGeometry relative="1" as="geometry" />
        </mxCell>
        <mxCell id="LFWVvYf6qhsQMJw6hhTW-308" value="display solution" style="strokeWidth=2;html=1;shape=mxgraph.flowchart.decision;whiteSpace=wrap;" vertex="1" parent="1">
          <mxGeometry x="-1510" y="250" width="100" height="60" as="geometry" />
        </mxCell>
        <mxCell id="LFWVvYf6qhsQMJw6hhTW-369" value="" style="edgeStyle=orthogonalEdgeStyle;rounded=0;orthogonalLoop=1;jettySize=auto;html=1;" edge="1" parent="1" source="LFWVvYf6qhsQMJw6hhTW-310" target="LFWVvYf6qhsQMJw6hhTW-307">
          <mxGeometry relative="1" as="geometry" />
        </mxCell>
        <mxCell id="LFWVvYf6qhsQMJw6hhTW-310" value="dir" style="strokeWidth=2;html=1;shape=mxgraph.flowchart.decision;whiteSpace=wrap;" vertex="1" parent="1">
          <mxGeometry x="-2000" y="250" width="100" height="60" as="geometry" />
        </mxCell>
        <mxCell id="LFWVvYf6qhsQMJw6hhTW-327" value="" style="edgeStyle=orthogonalEdgeStyle;rounded=0;orthogonalLoop=1;jettySize=auto;html=1;" edge="1" parent="1" source="LFWVvYf6qhsQMJw6hhTW-311" target="LFWVvYf6qhsQMJw6hhTW-323">
          <mxGeometry relative="1" as="geometry" />
        </mxCell>
        <mxCell id="LFWVvYf6qhsQMJw6hhTW-334" value="" style="edgeStyle=orthogonalEdgeStyle;rounded=0;orthogonalLoop=1;jettySize=auto;html=1;" edge="1" parent="1" source="LFWVvYf6qhsQMJw6hhTW-311" target="LFWVvYf6qhsQMJw6hhTW-310">
          <mxGeometry relative="1" as="geometry" />
        </mxCell>
        <mxCell id="LFWVvYf6qhsQMJw6hhTW-311" value="file size" style="strokeWidth=2;html=1;shape=mxgraph.flowchart.decision;whiteSpace=wrap;" vertex="1" parent="1">
          <mxGeometry x="-2240" y="250" width="100" height="60" as="geometry" />
        </mxCell>
        <mxCell id="LFWVvYf6qhsQMJw6hhTW-321" value="yes" style="edgeLabel;html=1;align=center;verticalAlign=middle;resizable=0;points=[];" vertex="1" connectable="0" parent="1">
          <mxGeometry x="-2200" y="340.00421052631583" as="geometry" />
        </mxCell>
        <mxCell id="LFWVvYf6qhsQMJw6hhTW-322" value="" style="edgeStyle=orthogonalEdgeStyle;rounded=0;orthogonalLoop=1;jettySize=auto;html=1;" edge="1" parent="1" source="LFWVvYf6qhsQMJw6hhTW-323" target="LFWVvYf6qhsQMJw6hhTW-326">
          <mxGeometry relative="1" as="geometry" />
        </mxCell>
        <mxCell id="LFWVvYf6qhsQMJw6hhTW-323" value="enter file name" style="rounded=1;arcSize=10;whiteSpace=wrap;html=1;align=center;" vertex="1" parent="1">
          <mxGeometry x="-2250" y="397.32" width="120" height="40" as="geometry" />
        </mxCell>
        <mxCell id="LFWVvYf6qhsQMJw6hhTW-324" value="currect" style="edgeLabel;html=1;align=center;verticalAlign=middle;resizable=0;points=[];" vertex="1" connectable="0" parent="1">
          <mxGeometry x="-2210" y="588.8463157894738" as="geometry" />
        </mxCell>
        <mxCell id="LFWVvYf6qhsQMJw6hhTW-325" value="incurrect" style="edgeLabel;html=1;align=center;verticalAlign=middle;resizable=0;points=[];" vertex="1" connectable="0" parent="1">
          <mxGeometry x="-2119.5" y="529.32" as="geometry">
            <mxPoint x="-6" y="-4" as="offset" />
          </mxGeometry>
        </mxCell>
        <mxCell id="LFWVvYf6qhsQMJw6hhTW-329" value="" style="edgeStyle=orthogonalEdgeStyle;rounded=0;orthogonalLoop=1;jettySize=auto;html=1;entryX=0.5;entryY=0;entryDx=0;entryDy=0;" edge="1" parent="1" source="LFWVvYf6qhsQMJw6hhTW-326" target="LFWVvYf6qhsQMJw6hhTW-180">
          <mxGeometry relative="1" as="geometry">
            <mxPoint x="-2190" y="699.3199999999999" as="targetPoint" />
          </mxGeometry>
        </mxCell>
        <mxCell id="LFWVvYf6qhsQMJw6hhTW-333" value="" style="edgeStyle=orthogonalEdgeStyle;rounded=0;orthogonalLoop=1;jettySize=auto;html=1;entryX=1;entryY=0.5;entryDx=0;entryDy=0;entryPerimeter=0;" edge="1" parent="1" source="LFWVvYf6qhsQMJw6hhTW-326" target="LFWVvYf6qhsQMJw6hhTW-118">
          <mxGeometry relative="1" as="geometry">
            <mxPoint x="-2000" y="539.3199999999997" as="targetPoint" />
            <Array as="points">
              <mxPoint x="-2100" y="539" />
              <mxPoint x="-2100" y="940" />
            </Array>
          </mxGeometry>
        </mxCell>
        <mxCell id="LFWVvYf6qhsQMJw6hhTW-326" value="check file name" style="strokeWidth=2;html=1;shape=mxgraph.flowchart.decision;whiteSpace=wrap;" vertex="1" parent="1">
          <mxGeometry x="-2245" y="499.32" width="110" height="80" as="geometry" />
        </mxCell>
        <mxCell id="LFWVvYf6qhsQMJw6hhTW-342" value="no" style="edgeLabel;html=1;align=center;verticalAlign=middle;resizable=0;points=[];" vertex="1" connectable="0" parent="1">
          <mxGeometry x="-2135.0036842105264" y="270" as="geometry">
            <mxPoint x="1" y="-2" as="offset" />
          </mxGeometry>
        </mxCell>
        <mxCell id="LFWVvYf6qhsQMJw6hhTW-347" value="no" style="edgeLabel;html=1;align=center;verticalAlign=middle;resizable=0;points=[];" vertex="1" connectable="0" parent="1">
          <mxGeometry x="-950.0036842105262" y="270" as="geometry">
            <mxPoint x="1" y="-2" as="offset" />
          </mxGeometry>
        </mxCell>
        <mxCell id="LFWVvYf6qhsQMJw6hhTW-348" value="no" style="edgeLabel;html=1;align=center;verticalAlign=middle;resizable=0;points=[];" vertex="1" connectable="0" parent="1">
          <mxGeometry x="-1155.0036842105262" y="270" as="geometry">
            <mxPoint x="1" y="-2" as="offset" />
          </mxGeometry>
        </mxCell>
        <mxCell id="LFWVvYf6qhsQMJw6hhTW-349" value="no" style="edgeLabel;html=1;align=center;verticalAlign=middle;resizable=0;points=[];" vertex="1" connectable="0" parent="1">
          <mxGeometry x="-1405.0036842105262" y="270" as="geometry">
            <mxPoint x="1" y="-2" as="offset" />
          </mxGeometry>
        </mxCell>
        <mxCell id="LFWVvYf6qhsQMJw6hhTW-350" value="no" style="edgeLabel;html=1;align=center;verticalAlign=middle;resizable=0;points=[];" vertex="1" connectable="0" parent="1">
          <mxGeometry x="-1648.0036842105262" y="270" as="geometry">
            <mxPoint x="1" y="-2" as="offset" />
          </mxGeometry>
        </mxCell>
        <mxCell id="LFWVvYf6qhsQMJw6hhTW-351" value="no" style="edgeLabel;html=1;align=center;verticalAlign=middle;resizable=0;points=[];" vertex="1" connectable="0" parent="1">
          <mxGeometry x="-1895.0036842105262" y="270" as="geometry">
            <mxPoint x="1" y="-2" as="offset" />
          </mxGeometry>
        </mxCell>
        <mxCell id="LFWVvYf6qhsQMJw6hhTW-357" value="" style="edgeStyle=orthogonalEdgeStyle;rounded=0;orthogonalLoop=1;jettySize=auto;html=1;" edge="1" parent="1" target="LFWVvYf6qhsQMJw6hhTW-360">
          <mxGeometry relative="1" as="geometry">
            <mxPoint x="-1950" y="311.15" as="sourcePoint" />
          </mxGeometry>
        </mxCell>
        <mxCell id="LFWVvYf6qhsQMJw6hhTW-358" value="yes" style="edgeLabel;html=1;align=center;verticalAlign=middle;resizable=0;points=[];" vertex="1" connectable="0" parent="1">
          <mxGeometry x="-1960" y="341.1542105263158" as="geometry" />
        </mxCell>
        <mxCell id="LFWVvYf6qhsQMJw6hhTW-359" value="" style="edgeStyle=orthogonalEdgeStyle;rounded=0;orthogonalLoop=1;jettySize=auto;html=1;" edge="1" parent="1" source="LFWVvYf6qhsQMJw6hhTW-360" target="LFWVvYf6qhsQMJw6hhTW-363">
          <mxGeometry relative="1" as="geometry" />
        </mxCell>
        <mxCell id="LFWVvYf6qhsQMJw6hhTW-360" value="enter path" style="rounded=1;arcSize=10;whiteSpace=wrap;html=1;align=center;" vertex="1" parent="1">
          <mxGeometry x="-2010.0000000000002" y="398.46999999999997" width="120" height="40" as="geometry" />
        </mxCell>
        <mxCell id="LFWVvYf6qhsQMJw6hhTW-361" value="currect" style="edgeLabel;html=1;align=center;verticalAlign=middle;resizable=0;points=[];" vertex="1" connectable="0" parent="1">
          <mxGeometry x="-1970" y="589.9963157894738" as="geometry" />
        </mxCell>
        <mxCell id="LFWVvYf6qhsQMJw6hhTW-362" value="incurrect" style="edgeLabel;html=1;align=center;verticalAlign=middle;resizable=0;points=[];" vertex="1" connectable="0" parent="1">
          <mxGeometry x="-1879.5000000000002" y="530.47" as="geometry">
            <mxPoint x="-6" y="-4" as="offset" />
          </mxGeometry>
        </mxCell>
        <mxCell id="LFWVvYf6qhsQMJw6hhTW-364" value="" style="edgeStyle=orthogonalEdgeStyle;rounded=0;orthogonalLoop=1;jettySize=auto;html=1;" edge="1" parent="1" source="LFWVvYf6qhsQMJw6hhTW-363" target="LFWVvYf6qhsQMJw6hhTW-179">
          <mxGeometry relative="1" as="geometry" />
        </mxCell>
        <mxCell id="LFWVvYf6qhsQMJw6hhTW-368" value="" style="edgeStyle=orthogonalEdgeStyle;rounded=0;orthogonalLoop=1;jettySize=auto;html=1;entryX=1;entryY=0.5;entryDx=0;entryDy=0;entryPerimeter=0;" edge="1" parent="1" source="LFWVvYf6qhsQMJw6hhTW-363" target="LFWVvYf6qhsQMJw6hhTW-118">
          <mxGeometry relative="1" as="geometry">
            <mxPoint x="-3319.4736842105262" y="990" as="targetPoint" />
            <Array as="points">
              <mxPoint x="-1860" y="540" />
              <mxPoint x="-1860" y="940" />
            </Array>
          </mxGeometry>
        </mxCell>
        <mxCell id="LFWVvYf6qhsQMJw6hhTW-363" value="check path" style="strokeWidth=2;html=1;shape=mxgraph.flowchart.decision;whiteSpace=wrap;" vertex="1" parent="1">
          <mxGeometry x="-2005.0000000000002" y="500.46999999999997" width="110" height="80" as="geometry" />
        </mxCell>
        <mxCell id="LFWVvYf6qhsQMJw6hhTW-379" value="" style="edgeStyle=orthogonalEdgeStyle;rounded=0;orthogonalLoop=1;jettySize=auto;html=1;entryX=1;entryY=0.5;entryDx=0;entryDy=0;entryPerimeter=0;" edge="1" parent="1" source="LFWVvYf6qhsQMJw6hhTW-370" target="LFWVvYf6qhsQMJw6hhTW-118">
          <mxGeometry relative="1" as="geometry">
            <mxPoint x="-1703" y="902.6799999999998" as="targetPoint" />
            <Array as="points">
              <mxPoint x="-1700" y="940" />
            </Array>
          </mxGeometry>
        </mxCell>
        <mxCell id="LFWVvYf6qhsQMJw6hhTW-370" value="load maze size" style="rounded=1;arcSize=10;whiteSpace=wrap;html=1;align=center;" vertex="1" parent="1">
          <mxGeometry x="-1763" y="762.68" width="120" height="40" as="geometry" />
        </mxCell>
        <mxCell id="LFWVvYf6qhsQMJw6hhTW-371" value="" style="edgeStyle=orthogonalEdgeStyle;rounded=0;orthogonalLoop=1;jettySize=auto;html=1;" edge="1" parent="1" source="LFWVvYf6qhsQMJw6hhTW-372" target="LFWVvYf6qhsQMJw6hhTW-376">
          <mxGeometry relative="1" as="geometry" />
        </mxCell>
        <mxCell id="LFWVvYf6qhsQMJw6hhTW-372" value="enter maze name" style="rounded=1;arcSize=10;whiteSpace=wrap;html=1;align=center;" vertex="1" parent="1">
          <mxGeometry x="-1764" y="400" width="120" height="40" as="geometry" />
        </mxCell>
        <mxCell id="LFWVvYf6qhsQMJw6hhTW-373" value="currect" style="edgeLabel;html=1;align=center;verticalAlign=middle;resizable=0;points=[];" vertex="1" connectable="0" parent="1">
          <mxGeometry x="-1723" y="591.5263157894738" as="geometry" />
        </mxCell>
        <mxCell id="LFWVvYf6qhsQMJw6hhTW-374" value="incurrect" style="edgeLabel;html=1;align=center;verticalAlign=middle;resizable=0;points=[];" vertex="1" connectable="0" parent="1">
          <mxGeometry x="-1632.5" y="532" as="geometry">
            <mxPoint x="-6" y="-4" as="offset" />
          </mxGeometry>
        </mxCell>
        <mxCell id="LFWVvYf6qhsQMJw6hhTW-375" value="" style="edgeStyle=orthogonalEdgeStyle;rounded=0;orthogonalLoop=1;jettySize=auto;html=1;entryX=0.5;entryY=0;entryDx=0;entryDy=0;" edge="1" parent="1" source="LFWVvYf6qhsQMJw6hhTW-376" target="LFWVvYf6qhsQMJw6hhTW-370">
          <mxGeometry relative="1" as="geometry">
            <mxPoint x="-1703" y="701.9999999999999" as="targetPoint" />
          </mxGeometry>
        </mxCell>
        <mxCell id="LFWVvYf6qhsQMJw6hhTW-381" value="" style="edgeStyle=orthogonalEdgeStyle;rounded=0;orthogonalLoop=1;jettySize=auto;html=1;entryX=1;entryY=0.5;entryDx=0;entryDy=0;entryPerimeter=0;" edge="1" parent="1" source="LFWVvYf6qhsQMJw6hhTW-376" target="LFWVvYf6qhsQMJw6hhTW-118">
          <mxGeometry relative="1" as="geometry">
            <mxPoint x="-1513" y="542" as="targetPoint" />
            <Array as="points">
              <mxPoint x="-1610" y="542" />
              <mxPoint x="-1610" y="940" />
            </Array>
          </mxGeometry>
        </mxCell>
        <mxCell id="LFWVvYf6qhsQMJw6hhTW-376" value="check maze name" style="strokeWidth=2;html=1;shape=mxgraph.flowchart.decision;whiteSpace=wrap;" vertex="1" parent="1">
          <mxGeometry x="-1758" y="502" width="110" height="80" as="geometry" />
        </mxCell>
        <mxCell id="LFWVvYf6qhsQMJw6hhTW-393" value="" style="edgeStyle=orthogonalEdgeStyle;rounded=0;orthogonalLoop=1;jettySize=auto;html=1;entryX=1;entryY=0.5;entryDx=0;entryDy=0;entryPerimeter=0;" edge="1" parent="1" source="LFWVvYf6qhsQMJw6hhTW-386" target="LFWVvYf6qhsQMJw6hhTW-118">
          <mxGeometry relative="1" as="geometry">
            <mxPoint x="-1460" y="902.6799999999998" as="targetPoint" />
            <Array as="points">
              <mxPoint x="-1460" y="940" />
            </Array>
          </mxGeometry>
        </mxCell>
        <mxCell id="LFWVvYf6qhsQMJw6hhTW-386" value="display dolution" style="rounded=1;arcSize=10;whiteSpace=wrap;html=1;align=center;" vertex="1" parent="1">
          <mxGeometry x="-1520" y="762.68" width="120" height="40" as="geometry" />
        </mxCell>
        <mxCell id="LFWVvYf6qhsQMJw6hhTW-387" value="currect" style="edgeLabel;html=1;align=center;verticalAlign=middle;resizable=0;points=[];" vertex="1" connectable="0" parent="1">
          <mxGeometry x="-1480" y="591.5263157894738" as="geometry" />
        </mxCell>
        <mxCell id="LFWVvYf6qhsQMJw6hhTW-388" value="incurrect" style="edgeLabel;html=1;align=center;verticalAlign=middle;resizable=0;points=[];" vertex="1" connectable="0" parent="1">
          <mxGeometry x="-1389.5" y="532" as="geometry">
            <mxPoint x="-6" y="-4" as="offset" />
          </mxGeometry>
        </mxCell>
        <mxCell id="LFWVvYf6qhsQMJw6hhTW-389" value="" style="edgeStyle=orthogonalEdgeStyle;rounded=0;orthogonalLoop=1;jettySize=auto;html=1;entryX=0.5;entryY=0;entryDx=0;entryDy=0;" edge="1" parent="1" source="LFWVvYf6qhsQMJw6hhTW-390" target="LFWVvYf6qhsQMJw6hhTW-386">
          <mxGeometry relative="1" as="geometry">
            <mxPoint x="-1460" y="701.9999999999999" as="targetPoint" />
          </mxGeometry>
        </mxCell>
        <mxCell id="LFWVvYf6qhsQMJw6hhTW-395" value="" style="edgeStyle=orthogonalEdgeStyle;rounded=0;orthogonalLoop=1;jettySize=auto;html=1;entryX=1;entryY=0.5;entryDx=0;entryDy=0;entryPerimeter=0;" edge="1" parent="1" source="LFWVvYf6qhsQMJw6hhTW-390" target="LFWVvYf6qhsQMJw6hhTW-118">
          <mxGeometry relative="1" as="geometry">
            <mxPoint x="-1270" y="542" as="targetPoint" />
            <Array as="points">
              <mxPoint x="-1370" y="542" />
              <mxPoint x="-1370" y="940" />
            </Array>
          </mxGeometry>
        </mxCell>
        <mxCell id="LFWVvYf6qhsQMJw6hhTW-390" value="check maze name" style="strokeWidth=2;html=1;shape=mxgraph.flowchart.decision;whiteSpace=wrap;" vertex="1" parent="1">
          <mxGeometry x="-1515" y="502" width="110" height="80" as="geometry" />
        </mxCell>
        <mxCell id="LFWVvYf6qhsQMJw6hhTW-398" value="currect" style="edgeLabel;html=1;align=center;verticalAlign=middle;resizable=0;points=[];" vertex="1" connectable="0" parent="1">
          <mxGeometry x="-1240" y="588.8463157894738" as="geometry" />
        </mxCell>
        <mxCell id="LFWVvYf6qhsQMJw6hhTW-399" value="incurrect" style="edgeLabel;html=1;align=center;verticalAlign=middle;resizable=0;points=[];" vertex="1" connectable="0" parent="1">
          <mxGeometry x="-1134.5" y="530" as="geometry">
            <mxPoint x="-6" y="-4" as="offset" />
          </mxGeometry>
        </mxCell>
        <mxCell id="LFWVvYf6qhsQMJw6hhTW-405" value="" style="edgeStyle=orthogonalEdgeStyle;rounded=0;orthogonalLoop=1;jettySize=auto;html=1;" edge="1" parent="1" source="LFWVvYf6qhsQMJw6hhTW-400" target="LFWVvYf6qhsQMJw6hhTW-404">
          <mxGeometry relative="1" as="geometry" />
        </mxCell>
        <mxCell id="LFWVvYf6qhsQMJw6hhTW-415" value="" style="edgeStyle=orthogonalEdgeStyle;rounded=0;orthogonalLoop=1;jettySize=auto;html=1;entryX=1;entryY=0.5;entryDx=0;entryDy=0;entryPerimeter=0;" edge="1" parent="1" source="LFWVvYf6qhsQMJw6hhTW-400" target="LFWVvYf6qhsQMJw6hhTW-118">
          <mxGeometry relative="1" as="geometry">
            <mxPoint x="-1020" y="540" as="targetPoint" />
            <Array as="points">
              <mxPoint x="-1110" y="540" />
              <mxPoint x="-1110" y="940" />
            </Array>
          </mxGeometry>
        </mxCell>
        <mxCell id="LFWVvYf6qhsQMJw6hhTW-400" value="check maze name" style="strokeWidth=2;html=1;shape=mxgraph.flowchart.decision;whiteSpace=wrap;" vertex="1" parent="1">
          <mxGeometry x="-1265" y="500" width="110" height="80" as="geometry" />
        </mxCell>
        <mxCell id="LFWVvYf6qhsQMJw6hhTW-419" value="" style="edgeStyle=orthogonalEdgeStyle;rounded=0;orthogonalLoop=1;jettySize=auto;html=1;entryX=1;entryY=0.5;entryDx=0;entryDy=0;entryPerimeter=0;" edge="1" parent="1" source="LFWVvYf6qhsQMJw6hhTW-403" target="LFWVvYf6qhsQMJw6hhTW-118">
          <mxGeometry relative="1" as="geometry">
            <mxPoint x="-3503.846153846154" y="1000" as="targetPoint" />
            <Array as="points">
              <mxPoint x="-1000" y="940" />
            </Array>
          </mxGeometry>
        </mxCell>
        <mxCell id="LFWVvYf6qhsQMJw6hhTW-420" value="yes" style="edgeLabel;html=1;align=center;verticalAlign=middle;resizable=0;points=[];" vertex="1" connectable="0" parent="LFWVvYf6qhsQMJw6hhTW-419">
          <mxGeometry x="-0.6825" y="-12" relative="1" as="geometry">
            <mxPoint y="1" as="offset" />
          </mxGeometry>
        </mxCell>
        <mxCell id="LFWVvYf6qhsQMJw6hhTW-422" value="" style="edgeStyle=orthogonalEdgeStyle;rounded=0;orthogonalLoop=1;jettySize=auto;html=1;entryX=1;entryY=0.5;entryDx=0;entryDy=0;entryPerimeter=0;" edge="1" parent="1" source="LFWVvYf6qhsQMJw6hhTW-403" target="LFWVvYf6qhsQMJw6hhTW-118">
          <mxGeometry relative="1" as="geometry">
            <mxPoint x="-3482.3076923076924" y="1000" as="targetPoint" />
            <Array as="points">
              <mxPoint x="-910" y="280" />
              <mxPoint x="-910" y="940" />
            </Array>
          </mxGeometry>
        </mxCell>
        <mxCell id="LFWVvYf6qhsQMJw6hhTW-403" value="exit" style="strokeWidth=2;html=1;shape=mxgraph.flowchart.decision;whiteSpace=wrap;" vertex="1" parent="1">
          <mxGeometry x="-1050" y="250" width="100" height="60" as="geometry" />
        </mxCell>
        <mxCell id="LFWVvYf6qhsQMJw6hhTW-407" value="" style="edgeStyle=orthogonalEdgeStyle;rounded=0;orthogonalLoop=1;jettySize=auto;html=1;" edge="1" parent="1" source="LFWVvYf6qhsQMJw6hhTW-404" target="LFWVvYf6qhsQMJw6hhTW-406">
          <mxGeometry relative="1" as="geometry" />
        </mxCell>
        <mxCell id="LFWVvYf6qhsQMJw6hhTW-413" value="" style="edgeStyle=orthogonalEdgeStyle;rounded=0;orthogonalLoop=1;jettySize=auto;html=1;entryX=1;entryY=0.5;entryDx=0;entryDy=0;entryPerimeter=0;" edge="1" parent="1" source="LFWVvYf6qhsQMJw6hhTW-404" target="LFWVvYf6qhsQMJw6hhTW-118">
          <mxGeometry relative="1" as="geometry">
            <mxPoint x="-1020" y="680" as="targetPoint" />
            <Array as="points">
              <mxPoint x="-1110" y="680" />
              <mxPoint x="-1110" y="940" />
            </Array>
          </mxGeometry>
        </mxCell>
        <mxCell id="LFWVvYf6qhsQMJw6hhTW-404" value="check algorithm name" style="strokeWidth=2;html=1;shape=mxgraph.flowchart.decision;whiteSpace=wrap;" vertex="1" parent="1">
          <mxGeometry x="-1265" y="635" width="110" height="90" as="geometry" />
        </mxCell>
        <mxCell id="LFWVvYf6qhsQMJw6hhTW-411" value="" style="edgeStyle=orthogonalEdgeStyle;rounded=0;orthogonalLoop=1;jettySize=auto;html=1;entryX=1;entryY=0.5;entryDx=0;entryDy=0;entryPerimeter=0;" edge="1" parent="1" source="LFWVvYf6qhsQMJw6hhTW-406" target="LFWVvYf6qhsQMJw6hhTW-118">
          <mxGeometry relative="1" as="geometry">
            <mxPoint x="-1210" y="910" as="targetPoint" />
            <Array as="points">
              <mxPoint x="-1210" y="940" />
            </Array>
          </mxGeometry>
        </mxCell>
        <mxCell id="LFWVvYf6qhsQMJw6hhTW-406" value="save solution of this maze" style="rounded=1;arcSize=10;whiteSpace=wrap;html=1;align=center;" vertex="1" parent="1">
          <mxGeometry x="-1270" y="770" width="120" height="40" as="geometry" />
        </mxCell>
        <mxCell id="LFWVvYf6qhsQMJw6hhTW-408" value="currect" style="edgeLabel;html=1;align=center;verticalAlign=middle;resizable=0;points=[];" vertex="1" connectable="0" parent="1">
          <mxGeometry x="-1230" y="598.8463157894738" as="geometry">
            <mxPoint x="-11" y="130" as="offset" />
          </mxGeometry>
        </mxCell>
        <mxCell id="LFWVvYf6qhsQMJw6hhTW-409" value="incurrect" style="edgeLabel;html=1;align=center;verticalAlign=middle;resizable=0;points=[];" vertex="1" connectable="0" parent="1">
          <mxGeometry x="-1100" y="539.32" as="geometry">
            <mxPoint x="-33" y="126" as="offset" />
          </mxGeometry>
        </mxCell>
        <mxCell id="LFWVvYf6qhsQMJw6hhTW-424" value="&lt;p style=&quot;margin:0px;margin-top:4px;text-align:center;&quot;&gt;&lt;b&gt;Maze2d&lt;/b&gt;&lt;br&gt;&lt;/p&gt;&lt;hr size=&quot;1&quot;&gt;&lt;p style=&quot;margin:0px;margin-left:4px;&quot;&gt;- mazeName: string&lt;/p&gt;&lt;p style=&quot;margin:0px;margin-left:4px;&quot;&gt;- mazeData: 2DArray&amp;lt;Char&amp;gt;&lt;/p&gt;&lt;p style=&quot;margin:0px;margin-left:4px;&quot;&gt;&lt;u&gt;-&amp;nbsp;mazeNum: int&lt;/u&gt;&lt;/p&gt;&lt;p style=&quot;margin:0px;margin-left:4px;&quot;&gt;-&amp;nbsp;mazeRows : int&lt;/p&gt;&lt;p style=&quot;margin:0px;margin-left:4px;&quot;&gt;-&amp;nbsp;mazeCols : int&amp;nbsp;&lt;/p&gt;&lt;p style=&quot;margin:0px;margin-left:4px;&quot;&gt;-&amp;nbsp;isValidCell(int x ,int y, int row): bool&lt;/p&gt;&lt;p style=&quot;margin:0px;margin-left:4px;&quot;&gt;-&amp;nbsp;isVisited(const 2DArray&amp;lt;Char&amp;gt; ,int x, int y) : bool&lt;/p&gt;&lt;p style=&quot;margin:0px;margin-left:4px;&quot;&gt;-&amp;nbsp;isUnvisited(const 2DArray&amp;lt;Char&amp;gt; ,int x, int y) : bool&lt;br&gt;&lt;/p&gt;&lt;p style=&quot;margin:0px;margin-left:4px;&quot;&gt;-&amp;nbsp;isWall(const 2DArray&amp;lt;Char&amp;gt; ,int x, int y) : bool&lt;/p&gt;&amp;nbsp;-&amp;nbsp;isDeadEnd(const 2DArray&amp;lt;Char&amp;gt; ,int x, int y) : bool&lt;p style=&quot;margin:0px;margin-left:4px;&quot;&gt;-&amp;nbsp;isPath(int x, int y) : bool&lt;/p&gt;&amp;nbsp;- getRandomDirection(mt19937 rng): Direction&lt;br&gt;&amp;nbsp;-&amp;nbsp;initial_start_end() : void&lt;br&gt;&lt;hr size=&quot;1&quot;&gt;&lt;p style=&quot;margin:0px;margin-left:4px;&quot;&gt;+&amp;nbsp;Maze2d(int rows, int cols, string name)&lt;/p&gt;&lt;p style=&quot;margin:0px;margin-left:4px;&quot;&gt;+&amp;nbsp;Maze2d()&lt;/p&gt;&lt;p style=&quot;margin:0px;margin-left:4px;&quot;&gt;+ generateMazeDFS() : bool&lt;/p&gt;&lt;p style=&quot;margin:0px;margin-left:4px;&quot;&gt;+&amp;nbsp;displayMaze() : void&amp;nbsp;&lt;/p&gt;&lt;p style=&quot;margin:0px;margin-left:4px;&quot;&gt;+&amp;nbsp;getMaze() : 2DArray&amp;lt;Char&amp;gt;&lt;/p&gt;&lt;p style=&quot;margin:0px;margin-left:4px;&quot;&gt;+&amp;nbsp;getName() : string&lt;/p&gt;&lt;p style=&quot;margin:0px;margin-left:4px;&quot;&gt;+&amp;nbsp;getRows() : int&lt;/p&gt;&lt;p style=&quot;margin:0px;margin-left:4px;&quot;&gt;+&amp;nbsp;getCols() : int&lt;br&gt;&lt;/p&gt;&lt;p style=&quot;margin:0px;margin-left:4px;&quot;&gt;+&amp;nbsp;setName(string name) : void&lt;/p&gt;&lt;p style=&quot;margin:0px;margin-left:4px;&quot;&gt;+&amp;nbsp;setRows(int x) : void&lt;br&gt;&lt;/p&gt;&lt;p style=&quot;margin:0px;margin-left:4px;&quot;&gt;+&amp;nbsp;setCols(int x) : void&lt;br&gt;&lt;/p&gt;&lt;p style=&quot;margin:0px;margin-left:4px;&quot;&gt;+ getMazeSize() : size_t&lt;/p&gt;" style="verticalAlign=top;align=left;overflow=fill;fontSize=12;fontFamily=Helvetica;html=1;whiteSpace=wrap;" vertex="1" parent="1">
          <mxGeometry x="-5730" y="480" width="380" height="410" as="geometry" />
        </mxCell>
        <mxCell id="LFWVvYf6qhsQMJw6hhTW-425" value="&lt;p style=&quot;margin:0px;margin-top:4px;text-align:center;&quot;&gt;&lt;i&gt;&amp;lt;&amp;lt;Abstract&amp;gt;&amp;gt;&lt;/i&gt;&lt;br&gt;&lt;b&gt;Maze2dGenerator&lt;/b&gt;&lt;/p&gt;&lt;hr size=&quot;1&quot;&gt;&lt;p style=&quot;margin:0px;margin-left:4px;&quot;&gt;&lt;br&gt;&lt;/p&gt;&lt;hr size=&quot;1&quot;&gt;&lt;p style=&quot;margin:0px;margin-left:4px;&quot;&gt;+ generate(string, int, int): 2dMaze&lt;br&gt;&lt;br&gt;&lt;/p&gt;" style="verticalAlign=top;align=left;overflow=fill;fontSize=12;fontFamily=Helvetica;html=1;whiteSpace=wrap;" vertex="1" parent="1">
          <mxGeometry x="-5635" y="289" width="190" height="110" as="geometry" />
        </mxCell>
        <mxCell id="LFWVvYf6qhsQMJw6hhTW-426" value="&lt;p style=&quot;text-align: center; margin: 4px 0px 0px;&quot;&gt;&lt;i&gt;&amp;lt;&amp;lt;Enum&amp;gt;&amp;gt;&lt;/i&gt;&lt;br&gt;&lt;/p&gt;&lt;div style=&quot;text-align: center;&quot;&gt;&lt;b style=&quot;background-color: initial;&quot;&gt;Direction&lt;/b&gt;&lt;/div&gt;&lt;p&gt;&lt;/p&gt;&lt;hr size=&quot;1&quot;&gt;&lt;p style=&quot;margin:0px;margin-left:4px;&quot;&gt;NORTH&lt;br&gt;EAST&lt;/p&gt;&lt;p style=&quot;margin:0px;margin-left:4px;&quot;&gt;SOUTH&lt;/p&gt;&lt;p style=&quot;margin:0px;margin-left:4px;&quot;&gt;WEST&lt;/p&gt;&lt;p style=&quot;margin:0px;margin-left:4px;&quot;&gt;&lt;br&gt;&lt;/p&gt;" style="verticalAlign=top;align=left;overflow=fill;fontSize=12;fontFamily=Helvetica;html=1;whiteSpace=wrap;" vertex="1" parent="1">
          <mxGeometry x="-5730" y="330" width="70" height="120" as="geometry" />
        </mxCell>
        <mxCell id="LFWVvYf6qhsQMJw6hhTW-427" value="&lt;p style=&quot;margin:0px;margin-top:4px;text-align:center;&quot;&gt;&lt;i&gt;&amp;lt;&amp;lt;&lt;/i&gt;&lt;i style=&quot;border-color: var(--border-color); background-color: initial;&quot;&gt;Abstract&lt;/i&gt;&lt;i&gt;&amp;gt;&amp;gt;&lt;/i&gt;&lt;br&gt;&lt;b&gt;CommonSearcher&lt;/b&gt;&lt;br&gt;&lt;/p&gt;&lt;hr size=&quot;1&quot;&gt;&lt;p style=&quot;margin:0px;margin-left:4px;&quot;&gt;-&amp;nbsp;m_evaluatedNodes : int&lt;/p&gt;&lt;p style=&quot;margin:0px;margin-left:4px;&quot;&gt;-&amp;nbsp;m_openList :&amp;nbsp;priority_queue&amp;lt;State&amp;lt;T&amp;gt;&amp;gt;&lt;/p&gt;&lt;hr size=&quot;1&quot;&gt;&lt;p style=&quot;margin:0px;margin-left:4px;&quot;&gt;+ search(): solution&amp;lt;t&amp;gt;&lt;br&gt;&lt;/p&gt;&lt;p style=&quot;margin:0px;margin-left:4px;&quot;&gt;+ getNumberOfNodesEvaluated() : int&lt;br&gt;&lt;/p&gt;&lt;p style=&quot;margin:0px;margin-left:4px;&quot;&gt;+ checkEfficiency() : void&lt;/p&gt;&lt;p style=&quot;margin:0px;margin-left:4px;&quot;&gt;&lt;br&gt;&lt;/p&gt;" style="verticalAlign=top;align=left;overflow=fill;fontSize=12;fontFamily=Helvetica;html=1;whiteSpace=wrap;" vertex="1" parent="1">
          <mxGeometry x="-5418" y="1258.75" width="296" height="140" as="geometry" />
        </mxCell>
        <mxCell id="LFWVvYf6qhsQMJw6hhTW-428" value="&lt;p style=&quot;margin:0px;margin-top:4px;text-align:center;&quot;&gt;&lt;b&gt;AStar&lt;/b&gt;&lt;/p&gt;&lt;hr size=&quot;1&quot;&gt;&lt;p style=&quot;margin:0px;margin-left:4px;&quot;&gt;&lt;br&gt;&lt;/p&gt;&lt;hr size=&quot;1&quot;&gt;&lt;p style=&quot;margin:0px;margin-left:4px;&quot;&gt;+ search(): solution&amp;lt;t&amp;gt;&lt;br&gt;&lt;/p&gt;" style="verticalAlign=top;align=left;overflow=fill;fontSize=12;fontFamily=Helvetica;html=1;whiteSpace=wrap;" vertex="1" parent="1">
          <mxGeometry x="-5500" y="1498.75" width="220" height="90" as="geometry" />
        </mxCell>
        <mxCell id="LFWVvYf6qhsQMJw6hhTW-429" value="&lt;div style=&quot;text-align: center;&quot;&gt;&lt;i style=&quot;background-color: initial; border-color: var(--border-color);&quot;&gt;&amp;nbsp; &amp;lt;&amp;lt;Abstract&amp;gt;&amp;gt;&lt;/i&gt;&lt;/div&gt;&lt;p style=&quot;text-align: center; margin: 4px 0px 0px;&quot;&gt;&lt;b&gt;MazeCompression&lt;/b&gt;&lt;/p&gt;&lt;hr size=&quot;1&quot;&gt;&lt;p style=&quot;margin:0px;margin-left:4px;&quot;&gt;&lt;br&gt;&lt;/p&gt;&lt;hr size=&quot;1&quot;&gt;&lt;p style=&quot;margin:0px;margin-left:4px;&quot;&gt;+ &lt;u&gt;compressFile(Maze2d m, const string fileName) : bool&lt;/u&gt;&lt;/p&gt;&lt;p style=&quot;margin:0px;margin-left:4px;&quot;&gt;+ &lt;u&gt;loadCompress(const string fileName ,string name) : bool&lt;br&gt;&lt;/u&gt;&lt;/p&gt;&lt;p style=&quot;margin:0px;margin-left:4px;&quot;&gt;+ ~MazeCompression()&lt;br&gt;&lt;/p&gt;" style="verticalAlign=top;align=left;overflow=fill;fontSize=12;fontFamily=Helvetica;html=1;whiteSpace=wrap;" vertex="1" parent="1">
          <mxGeometry x="-5582" y="30" width="370" height="200" as="geometry" />
        </mxCell>
        <mxCell id="LFWVvYf6qhsQMJw6hhTW-430" value="&lt;p style=&quot;margin:0px;margin-top:4px;text-align:center;&quot;&gt;&lt;b&gt;BFS&lt;/b&gt;&lt;/p&gt;&lt;hr size=&quot;1&quot;&gt;&lt;p style=&quot;margin:0px;margin-left:4px;&quot;&gt;&lt;br&gt;&lt;/p&gt;&lt;hr size=&quot;1&quot;&gt;&lt;p style=&quot;margin:0px;margin-left:4px;&quot;&gt;+ search(): solution&amp;lt;t&amp;gt;&lt;br&gt;&lt;/p&gt;" style="verticalAlign=top;align=left;overflow=fill;fontSize=12;fontFamily=Helvetica;html=1;whiteSpace=wrap;" vertex="1" parent="1">
          <mxGeometry x="-5260" y="1498.75" width="220" height="90" as="geometry" />
        </mxCell>
        <mxCell id="LFWVvYf6qhsQMJw6hhTW-431" value="&lt;p style=&quot;margin:0px;margin-top:4px;text-align:center;&quot;&gt;&lt;i style=&quot;--tw-border-spacing-x: 0; --tw-border-spacing-y: 0; --tw-translate-x: 0; --tw-translate-y: 0; --tw-rotate: 0; --tw-skew-x: 0; --tw-skew-y: 0; --tw-scale-x: 1; --tw-scale-y: 1; --tw-pan-x: ; --tw-pan-y: ; --tw-pinch-zoom: ; --tw-scroll-snap-strictness: proximity; --tw-gradient-from-position: ; --tw-gradient-via-position: ; --tw-gradient-to-position: ; --tw-ordinal: ; --tw-slashed-zero: ; --tw-numeric-figure: ; --tw-numeric-spacing: ; --tw-numeric-fraction: ; --tw-ring-inset: ; --tw-ring-offset-width: 0px; --tw-ring-offset-color: #fff; --tw-ring-color: rgb(59 130 246 / 0.5); --tw-ring-offset-shadow: 0 0 #0000; --tw-ring-shadow: 0 0 #0000; --tw-shadow: 0 0 #0000; --tw-shadow-colored: 0 0 #0000; --tw-blur: ; --tw-brightness: ; --tw-contrast: ; --tw-grayscale: ; --tw-hue-rotate: ; --tw-invert: ; --tw-saturate: ; --tw-sepia: ; --tw-drop-shadow: ; --tw-backdrop-blur: ; --tw-backdrop-brightness: ; --tw-backdrop-contrast: ; --tw-backdrop-grayscale: ; --tw-backdrop-hue-rotate: ; --tw-backdrop-invert: ; --tw-backdrop-opacity: ; --tw-backdrop-saturate: ; --tw-backdrop-sepia: ; border-color: var(--border-color);&quot;&gt;&amp;lt;&amp;lt;interface&amp;gt;&amp;gt;&lt;/i&gt;&lt;br style=&quot;--tw-border-spacing-x: 0; --tw-border-spacing-y: 0; --tw-translate-x: 0; --tw-translate-y: 0; --tw-rotate: 0; --tw-skew-x: 0; --tw-skew-y: 0; --tw-scale-x: 1; --tw-scale-y: 1; --tw-pan-x: ; --tw-pan-y: ; --tw-pinch-zoom: ; --tw-scroll-snap-strictness: proximity; --tw-gradient-from-position: ; --tw-gradient-via-position: ; --tw-gradient-to-position: ; --tw-ordinal: ; --tw-slashed-zero: ; --tw-numeric-figure: ; --tw-numeric-spacing: ; --tw-numeric-fraction: ; --tw-ring-inset: ; --tw-ring-offset-width: 0px; --tw-ring-offset-color: #fff; --tw-ring-color: rgb(59 130 246 / 0.5); --tw-ring-offset-shadow: 0 0 #0000; --tw-ring-shadow: 0 0 #0000; --tw-shadow: 0 0 #0000; --tw-shadow-colored: 0 0 #0000; --tw-blur: ; --tw-brightness: ; --tw-contrast: ; --tw-grayscale: ; --tw-hue-rotate: ; --tw-invert: ; --tw-saturate: ; --tw-sepia: ; --tw-drop-shadow: ; --tw-backdrop-blur: ; --tw-backdrop-brightness: ; --tw-backdrop-contrast: ; --tw-backdrop-grayscale: ; --tw-backdrop-hue-rotate: ; --tw-backdrop-invert: ; --tw-backdrop-opacity: ; --tw-backdrop-saturate: ; --tw-backdrop-sepia: ; border-color: var(--border-color);&quot;&gt;&lt;/p&gt;&lt;p style=&quot;margin:0px;margin-top:4px;text-align:center;&quot;&gt;&lt;b&gt;Command&lt;/b&gt;&lt;/p&gt;&lt;hr size=&quot;1&quot;&gt;&lt;p style=&quot;margin:0px;margin-left:4px;&quot;&gt;&lt;br&gt;&lt;/p&gt;&lt;hr size=&quot;1&quot;&gt;&lt;p style=&quot;margin:0px;margin-left:4px;&quot;&gt;+ execute(string param) : void&lt;br&gt;&lt;/p&gt;" style="verticalAlign=top;align=left;overflow=fill;fontSize=12;fontFamily=Helvetica;html=1;whiteSpace=wrap;" vertex="1" parent="1">
          <mxGeometry x="-4408" y="890" width="190" height="95" as="geometry" />
        </mxCell>
        <mxCell id="LFWVvYf6qhsQMJw6hhTW-432" value="&lt;p style=&quot;margin:0px;margin-top:4px;text-align:center;&quot;&gt;&lt;i&gt;&amp;lt;&amp;lt;Interface&amp;gt;&amp;gt;&lt;/i&gt;&lt;br&gt;&lt;b&gt;subscriber&lt;/b&gt;&lt;br&gt;&lt;/p&gt;&lt;hr size=&quot;1&quot;&gt;&lt;p style=&quot;margin:0px;margin-left:4px;&quot;&gt;&lt;br&gt;&lt;/p&gt;&lt;hr size=&quot;1&quot;&gt;&lt;p style=&quot;margin:0px;margin-left:4px;&quot;&gt;+ update(): void&lt;/p&gt;" style="verticalAlign=top;align=left;overflow=fill;fontSize=12;fontFamily=Helvetica;html=1;whiteSpace=wrap;" vertex="1" parent="1">
          <mxGeometry x="-4803" y="380" width="190" height="100" as="geometry" />
        </mxCell>
        <mxCell id="LFWVvYf6qhsQMJw6hhTW-433" value="&lt;p style=&quot;margin:0px;margin-top:4px;text-align:center;&quot;&gt;&lt;b&gt;publisher&lt;/b&gt;&lt;br&gt;&lt;/p&gt;&lt;hr size=&quot;1&quot;&gt;&lt;p style=&quot;margin:0px;margin-left:4px;&quot;&gt;- Subscribers : vector&amp;lt;subscriber*&amp;gt;&lt;/p&gt;&lt;hr size=&quot;1&quot;&gt;&lt;p style=&quot;margin:0px;margin-left:4px;&quot;&gt;+ notify() : void&lt;/p&gt;&lt;p style=&quot;margin:0px;margin-left:4px;&quot;&gt;+ subscribe(subscriber* s): void&lt;/p&gt;&lt;p style=&quot;margin:0px;margin-left:4px;&quot;&gt;+ unsubscribe(subscriber* s): void&lt;/p&gt;" style="verticalAlign=top;align=left;overflow=fill;fontSize=12;fontFamily=Helvetica;html=1;whiteSpace=wrap;" vertex="1" parent="1">
          <mxGeometry x="-5098" y="363" width="210" height="110" as="geometry" />
        </mxCell>
        <mxCell id="LFWVvYf6qhsQMJw6hhTW-434" value="&lt;p style=&quot;margin:0px;margin-top:4px;text-align:center;&quot;&gt;&lt;b&gt;MyView&lt;/b&gt;&lt;br&gt;&lt;/p&gt;&lt;hr size=&quot;1&quot;&gt;&lt;p style=&quot;border-color: var(--border-color); margin: 0px 0px 0px 4px;&quot;&gt;-&amp;nbsp;&lt;u style=&quot;border-color: var(--border-color);&quot;&gt;instance : unique_ptr&amp;lt;myView&amp;gt;&lt;/u&gt;&lt;/p&gt;&lt;p style=&quot;border-color: var(--border-color); margin: 0px 0px 0px 4px;&quot;&gt;&lt;span style=&quot;border-color: var(--border-color); background-color: initial;&quot;&gt;- shouldExit : bool&lt;br style=&quot;border-color: var(--border-color);&quot;&gt;&lt;/span&gt;&lt;/p&gt;&lt;p style=&quot;border-color: var(--border-color); margin: 0px 0px 0px 4px;&quot;&gt;&lt;span style=&quot;border-color: var(--border-color); background-color: initial;&quot;&gt;- myModel()&lt;/span&gt;&lt;/p&gt;&lt;hr size=&quot;1&quot;&gt;&lt;p style=&quot;margin:0px;margin-left:4px;&quot;&gt;+&amp;nbsp;&lt;u style=&quot;border-color: var(--border-color);&quot;&gt;getInstance() : myModel&lt;/u&gt;&lt;br&gt;&lt;/p&gt;&lt;p style=&quot;margin:0px;margin-left:4px;&quot;&gt;+ start() : void&lt;br&gt;&lt;/p&gt;&lt;p style=&quot;margin:0px;margin-left:4px;&quot;&gt;+&amp;nbsp;setShouldExit(bool exit) : void&lt;/p&gt;&lt;p style=&quot;margin:0px;margin-left:4px;&quot;&gt;+&amp;nbsp;getShouldExit() : bool&amp;nbsp;&lt;/p&gt;&lt;p style=&quot;margin:0px;margin-left:4px;&quot;&gt;+&amp;nbsp;update() : void&lt;/p&gt;" style="verticalAlign=top;align=left;overflow=fill;fontSize=12;fontFamily=Helvetica;html=1;whiteSpace=wrap;" vertex="1" parent="1">
          <mxGeometry x="-4818" y="567.5" width="220" height="175" as="geometry" />
        </mxCell>
        <mxCell id="LFWVvYf6qhsQMJw6hhTW-435" value="" style="edgeStyle=orthogonalEdgeStyle;rounded=0;orthogonalLoop=1;jettySize=auto;html=1;entryX=0.5;entryY=0;entryDx=0;entryDy=0;" edge="1" parent="1" source="LFWVvYf6qhsQMJw6hhTW-436" target="LFWVvYf6qhsQMJw6hhTW-475">
          <mxGeometry relative="1" as="geometry">
            <mxPoint x="-5090" y="850" as="targetPoint" />
          </mxGeometry>
        </mxCell>
        <mxCell id="LFWVvYf6qhsQMJw6hhTW-436" value="&lt;p style=&quot;margin:0px;margin-top:4px;text-align:center;&quot;&gt;&lt;b&gt;MyModel&lt;/b&gt;&lt;br&gt;&lt;/p&gt;&lt;hr size=&quot;1&quot;&gt;&lt;p style=&quot;margin:0px;margin-left:4px;&quot;&gt;- mazes :&lt;span style=&quot;background-color: initial;&quot;&gt;unordered_map&amp;lt;string, Maze2d&amp;gt;&amp;nbsp;&lt;/span&gt;&lt;/p&gt;&lt;p style=&quot;margin:0px;margin-left:4px;&quot;&gt;&lt;span style=&quot;background-color: initial;&quot;&gt;- curMaze : Maze2d&lt;/span&gt;&lt;/p&gt;&lt;p style=&quot;margin:0px;margin-left:4px;&quot;&gt;&lt;span style=&quot;background-color: initial;&quot;&gt;- &lt;u&gt;instance : unique_ptr&amp;lt;myModel&amp;gt;&lt;/u&gt;&lt;/span&gt;&lt;/p&gt;&lt;p style=&quot;margin:0px;margin-left:4px;&quot;&gt;&lt;span style=&quot;background-color: initial;&quot;&gt;- clearAllMazes() : void&lt;br&gt;&lt;/span&gt;&lt;/p&gt;&lt;p style=&quot;margin:0px;margin-left:4px;&quot;&gt;&lt;span style=&quot;background-color: initial;&quot;&gt;- myModel()&lt;/span&gt;&lt;/p&gt;&lt;hr size=&quot;1&quot;&gt;&lt;p style=&quot;margin:0px;margin-left:4px;&quot;&gt;+&amp;nbsp;myModel(const myModel) = delete&lt;/p&gt;&lt;p style=&quot;margin:0px;margin-left:4px;&quot;&gt;+ operator=(const myModel&amp;amp;) = delete : myModel&amp;nbsp;&lt;br&gt;&lt;/p&gt;&amp;nbsp;+ &lt;u&gt;getInstance() : myModel&lt;/u&gt;&lt;br&gt;&amp;nbsp;+&amp;nbsp;addMaze(const string&amp;amp; mazeName, const Maze2d&amp;amp; maze) : bool&lt;br&gt;&amp;nbsp;+ getMaze(const string&amp;amp; mazeName) : bool&lt;br&gt;&amp;nbsp;+ removeMaze(const string&amp;amp; mazeName) : bool&lt;br&gt;&amp;nbsp;+ getCurMaze() : Maze2d&lt;br&gt;&amp;nbsp;+ initializeSubscribers() : void" style="verticalAlign=top;align=left;overflow=fill;fontSize=12;fontFamily=Helvetica;html=1;whiteSpace=wrap;" vertex="1" parent="1">
          <mxGeometry x="-5278" y="530" width="375" height="240" as="geometry" />
        </mxCell>
        <mxCell id="LFWVvYf6qhsQMJw6hhTW-437" value="&lt;p style=&quot;margin:0px;margin-top:4px;text-align:center;&quot;&gt;&lt;b&gt;MyController&lt;/b&gt;&lt;br&gt;&lt;/p&gt;&lt;hr size=&quot;1&quot;&gt;&lt;p style=&quot;margin:0px;margin-left:4px;&quot;&gt;-&amp;nbsp;&lt;u&gt;instance :&amp;nbsp;unique_ptr&amp;lt;myController&amp;gt;&lt;/u&gt;&lt;u style=&quot;background-color: initial;&quot;&gt;&amp;nbsp;&lt;/u&gt;&lt;/p&gt;&amp;nbsp;- myController()&lt;br&gt;&amp;nbsp;- commands :&amp;nbsp;map&amp;lt;std::string, command*&amp;gt;&lt;br&gt;&amp;nbsp;-&amp;nbsp;inStream :&amp;nbsp;istream*&lt;br&gt;&amp;nbsp;-&amp;nbsp;outStream :&amp;nbsp;ostream*&lt;br&gt;&lt;hr size=&quot;1&quot;&gt;&lt;p style=&quot;margin:0px;margin-left:4px;&quot;&gt;+ myController(const myController&amp;amp;) = delete&lt;/p&gt;&lt;p style=&quot;margin:0px;margin-left:4px;&quot;&gt;+ myController&amp;amp; operator=(const myController&amp;amp;) = delete :&amp;nbsp;myController&lt;/p&gt;&lt;p style=&quot;margin:0px;margin-left:4px;&quot;&gt;+&amp;nbsp;&lt;u&gt;getInstance() :&amp;nbsp;myController&amp;amp;&lt;/u&gt;&lt;/p&gt;&amp;nbsp;+ ~myController()&lt;br&gt;&amp;nbsp;+&amp;nbsp;initializeCommands() : void&lt;br&gt;&amp;nbsp;+&amp;nbsp;processCommand() : void&lt;br&gt;&amp;nbsp;+&amp;nbsp;setStreams(istream&amp;amp; in, ostream&amp;amp; out) : void&lt;br&gt;&amp;nbsp;+&amp;nbsp;getOutStream() :&amp;nbsp;ostream&amp;amp;&lt;br&gt;&amp;nbsp;+&amp;nbsp;getInStream() :&amp;nbsp;istream&amp;amp;" style="verticalAlign=top;align=left;overflow=fill;fontSize=12;fontFamily=Helvetica;html=1;whiteSpace=wrap;" vertex="1" parent="1">
          <mxGeometry x="-4508" y="530" width="390" height="250" as="geometry" />
        </mxCell>
        <mxCell id="LFWVvYf6qhsQMJw6hhTW-438" value="&lt;p style=&quot;margin:0px;margin-top:4px;text-align:center;&quot;&gt;&lt;b&gt;solution&lt;/b&gt;&lt;br&gt;&lt;/p&gt;&lt;hr size=&quot;1&quot;&gt;&lt;p style=&quot;margin:0px;margin-left:4px;&quot;&gt;&lt;br&gt;&lt;/p&gt;&lt;hr size=&quot;1&quot;&gt;&lt;p style=&quot;margin:0px;margin-left:4px;&quot;&gt;+ getSolution(): void&lt;/p&gt;&lt;p style=&quot;margin:0px;margin-left:4px;&quot;&gt;&lt;br&gt;&lt;/p&gt;" style="verticalAlign=top;align=left;overflow=fill;fontSize=12;fontFamily=Helvetica;html=1;whiteSpace=wrap;" vertex="1" parent="1">
          <mxGeometry x="-4420" y="383" width="190" height="90" as="geometry" />
        </mxCell>
        <mxCell id="LFWVvYf6qhsQMJw6hhTW-439" value="&lt;p style=&quot;margin:0px;margin-top:4px;text-align:center;&quot;&gt;&lt;b&gt;file&lt;/b&gt;&lt;/p&gt;&lt;hr size=&quot;1&quot;&gt;&lt;p style=&quot;margin:0px;margin-left:4px;&quot;&gt;&lt;br&gt;&lt;/p&gt;&lt;hr size=&quot;1&quot;&gt;&lt;p style=&quot;margin:0px;margin-left:4px;&quot;&gt;+ &lt;u&gt;exportToFile(Maze2d m, const string fileName): bool&lt;/u&gt;&lt;br&gt;&lt;/p&gt;&lt;p style=&quot;margin:0px;margin-left:4px;&quot;&gt;+ &lt;u&gt;importFromFile(Maze2d m, const string fileName, string name) : bool&lt;/u&gt;&lt;br&gt;&lt;/p&gt;&lt;p style=&quot;margin:0px;margin-left:4px;&quot;&gt;+ &lt;u&gt;getFileSize(const string fileName) : size_t&lt;/u&gt;&lt;br&gt;&lt;/p&gt;" style="verticalAlign=top;align=left;overflow=fill;fontSize=12;fontFamily=Helvetica;html=1;whiteSpace=wrap;" vertex="1" parent="1">
          <mxGeometry x="-5158" y="70" width="390" height="120" as="geometry" />
        </mxCell>
        <mxCell id="LFWVvYf6qhsQMJw6hhTW-440" value="&lt;p style=&quot;margin:0px;margin-top:4px;text-align:center;&quot;&gt;&lt;i&gt;&amp;lt;&amp;lt;&lt;/i&gt;&lt;i style=&quot;border-color: var(--border-color); --tw-border-spacing-x: 0; --tw-border-spacing-y: 0; --tw-translate-x: 0; --tw-translate-y: 0; --tw-rotate: 0; --tw-skew-x: 0; --tw-skew-y: 0; --tw-scale-x: 1; --tw-scale-y: 1; --tw-pan-x: ; --tw-pan-y: ; --tw-pinch-zoom: ; --tw-scroll-snap-strictness: proximity; --tw-gradient-from-position: ; --tw-gradient-via-position: ; --tw-gradient-to-position: ; --tw-ordinal: ; --tw-slashed-zero: ; --tw-numeric-figure: ; --tw-numeric-spacing: ; --tw-numeric-fraction: ; --tw-ring-inset: ; --tw-ring-offset-width: 0px; --tw-ring-offset-color: #fff; --tw-ring-color: rgb(59 130 246 / 0.5); --tw-ring-offset-shadow: 0 0 #0000; --tw-ring-shadow: 0 0 #0000; --tw-shadow: 0 0 #0000; --tw-shadow-colored: 0 0 #0000; --tw-blur: ; --tw-brightness: ; --tw-contrast: ; --tw-grayscale: ; --tw-hue-rotate: ; --tw-invert: ; --tw-saturate: ; --tw-sepia: ; --tw-drop-shadow: ; --tw-backdrop-blur: ; --tw-backdrop-brightness: ; --tw-backdrop-contrast: ; --tw-backdrop-grayscale: ; --tw-backdrop-hue-rotate: ; --tw-backdrop-invert: ; --tw-backdrop-opacity: ; --tw-backdrop-saturate: ; --tw-backdrop-sepia: ;&quot;&gt;Interface&lt;/i&gt;&lt;i&gt;&amp;gt;&amp;gt;&lt;/i&gt;&lt;br&gt;&lt;b&gt;Searcher&lt;/b&gt;&lt;br&gt;&lt;/p&gt;&lt;hr size=&quot;1&quot;&gt;&lt;p style=&quot;margin:0px;margin-left:4px;&quot;&gt;&lt;br&gt;&lt;/p&gt;&lt;hr size=&quot;1&quot;&gt;&lt;p style=&quot;margin:0px;margin-left:4px;&quot;&gt;+ search(): solution&amp;lt;t&amp;gt;&lt;br&gt;&lt;/p&gt;&lt;p style=&quot;margin:0px;margin-left:4px;&quot;&gt;+ getNumberOfNodesEvaluated() : int&lt;br&gt;&lt;/p&gt;&lt;p style=&quot;margin:0px;margin-left:4px;&quot;&gt;&lt;br&gt;&lt;/p&gt;" style="verticalAlign=top;align=left;overflow=fill;fontSize=12;fontFamily=Helvetica;html=1;whiteSpace=wrap;" vertex="1" parent="1">
          <mxGeometry x="-5418" y="1071.25" width="296" height="110" as="geometry" />
        </mxCell>
        <mxCell id="LFWVvYf6qhsQMJw6hhTW-441" value="&lt;p style=&quot;margin:0px;margin-top:4px;text-align:center;&quot;&gt;&lt;b&gt;State&amp;lt;T&amp;gt;&lt;/b&gt;&lt;br&gt;&lt;/p&gt;&lt;hr size=&quot;1&quot;&gt;&lt;p style=&quot;margin:0px;margin-left:4px;&quot;&gt;-&amp;nbsp;m_state : T&lt;/p&gt;&lt;p style=&quot;margin:0px;margin-left:4px;&quot;&gt;-&amp;nbsp;m_cost :&amp;nbsp;double&lt;/p&gt;&lt;p style=&quot;margin:0px;margin-left:4px;&quot;&gt;-&amp;nbsp;m_cameFrom:&amp;nbsp;unique_ptr&amp;lt;State&amp;gt;&lt;/p&gt;&lt;hr size=&quot;1&quot;&gt;&lt;p style=&quot;margin:0px;margin-left:4px;&quot;&gt;+ State(T&amp;amp; state)&lt;/p&gt;&lt;p style=&quot;margin:0px;margin-left:4px;&quot;&gt;+ operator == (State&amp;amp; s) : bool&amp;nbsp;&lt;/p&gt;&lt;p style=&quot;margin:0px;margin-left:4px;&quot;&gt;+ getState() : T&lt;br&gt;&lt;/p&gt;&lt;p style=&quot;margin:0px;margin-left:4px;&quot;&gt;&lt;br&gt;&lt;/p&gt;" style="verticalAlign=top;align=left;overflow=fill;fontSize=12;fontFamily=Helvetica;html=1;whiteSpace=wrap;" vertex="1" parent="1">
          <mxGeometry x="-5730" y="1258.75" width="210" height="150" as="geometry" />
        </mxCell>
        <mxCell id="LFWVvYf6qhsQMJw6hhTW-442" value="&lt;p style=&quot;margin:0px;margin-top:4px;text-align:center;&quot;&gt;&lt;b style=&quot;background-color: initial;&quot;&gt;dir&lt;/b&gt;&lt;br&gt;&lt;/p&gt;&lt;hr size=&quot;1&quot;&gt;&lt;p style=&quot;margin:0px;margin-left:4px;&quot;&gt;&lt;br&gt;&lt;/p&gt;&lt;hr size=&quot;1&quot;&gt;&lt;p style=&quot;margin:0px;margin-left:4px;&quot;&gt;+ execute(string param) : void&lt;br&gt;&lt;/p&gt;" style="verticalAlign=top;align=left;overflow=fill;fontSize=12;fontFamily=Helvetica;html=1;whiteSpace=wrap;" vertex="1" parent="1">
          <mxGeometry x="-4918" y="1010" width="200" height="80" as="geometry" />
        </mxCell>
        <mxCell id="LFWVvYf6qhsQMJw6hhTW-443" value="&lt;p style=&quot;margin:0px;margin-top:4px;text-align:center;&quot;&gt;&lt;b&gt;generate maze&lt;/b&gt;&lt;/p&gt;&lt;hr size=&quot;1&quot;&gt;&lt;p style=&quot;margin:0px;margin-left:4px;&quot;&gt;&lt;br&gt;&lt;/p&gt;&lt;hr size=&quot;1&quot;&gt;&lt;p style=&quot;margin:0px;margin-left:4px;&quot;&gt;+ execute(string param) : void&lt;br&gt;&lt;/p&gt;" style="verticalAlign=top;align=left;overflow=fill;fontSize=12;fontFamily=Helvetica;html=1;whiteSpace=wrap;" vertex="1" parent="1">
          <mxGeometry x="-4918" y="1250" width="200" height="80" as="geometry" />
        </mxCell>
        <mxCell id="LFWVvYf6qhsQMJw6hhTW-444" value="&lt;p style=&quot;margin:0px;margin-top:4px;text-align:center;&quot;&gt;&lt;b&gt;maze size&lt;/b&gt;&lt;/p&gt;&lt;hr size=&quot;1&quot;&gt;&lt;p style=&quot;margin:0px;margin-left:4px;&quot;&gt;&lt;br&gt;&lt;/p&gt;&lt;hr size=&quot;1&quot;&gt;&lt;p style=&quot;margin:0px;margin-left:4px;&quot;&gt;+ execute(string param) : void&lt;br&gt;&lt;/p&gt;" style="verticalAlign=top;align=left;overflow=fill;fontSize=12;fontFamily=Helvetica;html=1;whiteSpace=wrap;" vertex="1" parent="1">
          <mxGeometry x="-4918" y="1370" width="200" height="80" as="geometry" />
        </mxCell>
        <mxCell id="LFWVvYf6qhsQMJw6hhTW-445" value="&lt;p style=&quot;margin:0px;margin-top:4px;text-align:center;&quot;&gt;&lt;b&gt;save maze&lt;/b&gt;&lt;/p&gt;&lt;hr size=&quot;1&quot;&gt;&lt;p style=&quot;margin:0px;margin-left:4px;&quot;&gt;&lt;br&gt;&lt;/p&gt;&lt;hr size=&quot;1&quot;&gt;&lt;p style=&quot;margin:0px;margin-left:4px;&quot;&gt;+ execute(string param) : void&lt;br&gt;&lt;/p&gt;" style="verticalAlign=top;align=left;overflow=fill;fontSize=12;fontFamily=Helvetica;html=1;whiteSpace=wrap;" vertex="1" parent="1">
          <mxGeometry x="-4918" y="1490" width="200" height="80" as="geometry" />
        </mxCell>
        <mxCell id="LFWVvYf6qhsQMJw6hhTW-446" value="&lt;p style=&quot;margin:0px;margin-top:4px;text-align:center;&quot;&gt;&lt;b&gt;load maze&lt;/b&gt;&lt;/p&gt;&lt;hr size=&quot;1&quot;&gt;&lt;p style=&quot;margin:0px;margin-left:4px;&quot;&gt;&lt;br&gt;&lt;/p&gt;&lt;hr size=&quot;1&quot;&gt;&lt;p style=&quot;margin:0px;margin-left:4px;&quot;&gt;+ execute(string param) : void&lt;br&gt;&lt;/p&gt;" style="verticalAlign=top;align=left;overflow=fill;fontSize=12;fontFamily=Helvetica;html=1;whiteSpace=wrap;" vertex="1" parent="1">
          <mxGeometry x="-4598" y="1410" width="188.5" height="80" as="geometry" />
        </mxCell>
        <mxCell id="LFWVvYf6qhsQMJw6hhTW-447" value="&lt;p style=&quot;margin:0px;margin-top:4px;text-align:center;&quot;&gt;&lt;b&gt;compress&lt;/b&gt;&lt;br&gt;&lt;/p&gt;&lt;hr size=&quot;1&quot;&gt;&lt;p style=&quot;margin:0px;margin-left:4px;&quot;&gt;&lt;br&gt;&lt;/p&gt;&lt;hr size=&quot;1&quot;&gt;&lt;p style=&quot;margin:0px;margin-left:4px;&quot;&gt;+ execute(string param) : void&lt;br&gt;&lt;/p&gt;" style="verticalAlign=top;align=left;overflow=fill;fontSize=12;fontFamily=Helvetica;html=1;whiteSpace=wrap;" vertex="1" parent="1">
          <mxGeometry x="-4598" y="1290" width="187" height="80" as="geometry" />
        </mxCell>
        <mxCell id="LFWVvYf6qhsQMJw6hhTW-448" value="&lt;p style=&quot;margin:0px;margin-top:4px;text-align:center;&quot;&gt;&lt;b&gt;load compress&lt;/b&gt;&lt;/p&gt;&lt;hr size=&quot;1&quot;&gt;&lt;p style=&quot;margin:0px;margin-left:4px;&quot;&gt;&lt;br&gt;&lt;/p&gt;&lt;hr size=&quot;1&quot;&gt;&lt;p style=&quot;margin:0px;margin-left:4px;&quot;&gt;+ execute(string param) : void&lt;br&gt;&lt;/p&gt;" style="verticalAlign=top;align=left;overflow=fill;fontSize=12;fontFamily=Helvetica;html=1;whiteSpace=wrap;" vertex="1" parent="1">
          <mxGeometry x="-4598" y="1170" width="187" height="80" as="geometry" />
        </mxCell>
        <mxCell id="LFWVvYf6qhsQMJw6hhTW-449" value="&lt;p style=&quot;margin:0px;margin-top:4px;text-align:center;&quot;&gt;&lt;b&gt;file size&lt;/b&gt;&lt;/p&gt;&lt;hr size=&quot;1&quot;&gt;&lt;p style=&quot;margin:0px;margin-left:4px;&quot;&gt;&lt;br&gt;&lt;/p&gt;&lt;hr size=&quot;1&quot;&gt;&lt;p style=&quot;margin:0px;margin-left:4px;&quot;&gt;+ execute(string param) : void&lt;br&gt;&lt;/p&gt;" style="verticalAlign=top;align=left;overflow=fill;fontSize=12;fontFamily=Helvetica;html=1;whiteSpace=wrap;" vertex="1" parent="1">
          <mxGeometry x="-4598" y="1050" width="187" height="80" as="geometry" />
        </mxCell>
        <mxCell id="LFWVvYf6qhsQMJw6hhTW-450" value="&lt;p style=&quot;margin:0px;margin-top:4px;text-align:center;&quot;&gt;&lt;b&gt;solve&lt;/b&gt;&lt;/p&gt;&lt;hr size=&quot;1&quot;&gt;&lt;p style=&quot;margin:0px;margin-left:4px;&quot;&gt;&lt;br&gt;&lt;/p&gt;&lt;hr size=&quot;1&quot;&gt;&lt;p style=&quot;margin:0px;margin-left:4px;&quot;&gt;+ execute(string param) : void&lt;br&gt;&lt;/p&gt;" style="verticalAlign=top;align=left;overflow=fill;fontSize=12;fontFamily=Helvetica;html=1;whiteSpace=wrap;" vertex="1" parent="1">
          <mxGeometry x="-4918" y="1610" width="200" height="80" as="geometry" />
        </mxCell>
        <mxCell id="LFWVvYf6qhsQMJw6hhTW-451" value="&lt;p style=&quot;margin:0px;margin-top:4px;text-align:center;&quot;&gt;&lt;b&gt;display solution&lt;/b&gt;&lt;/p&gt;&lt;hr size=&quot;1&quot;&gt;&lt;p style=&quot;margin:0px;margin-left:4px;&quot;&gt;&lt;br&gt;&lt;/p&gt;&lt;hr size=&quot;1&quot;&gt;&lt;p style=&quot;margin:0px;margin-left:4px;&quot;&gt;+ execute(string param) : void&lt;br&gt;&lt;/p&gt;" style="verticalAlign=top;align=left;overflow=fill;fontSize=12;fontFamily=Helvetica;html=1;whiteSpace=wrap;" vertex="1" parent="1">
          <mxGeometry x="-4598" y="1532.5" width="187" height="77.5" as="geometry" />
        </mxCell>
        <mxCell id="LFWVvYf6qhsQMJw6hhTW-452" value="&lt;p style=&quot;margin:0px;margin-top:4px;text-align:center;&quot;&gt;&lt;b&gt;exit&lt;/b&gt;&lt;/p&gt;&lt;hr size=&quot;1&quot;&gt;&lt;p style=&quot;margin:0px;margin-left:4px;&quot;&gt;&lt;br&gt;&lt;/p&gt;&lt;hr size=&quot;1&quot;&gt;&lt;p style=&quot;margin:0px;margin-left:4px;&quot;&gt;+ useCommand() : void&lt;br&gt;&lt;/p&gt;" style="verticalAlign=top;align=left;overflow=fill;fontSize=12;fontFamily=Helvetica;html=1;whiteSpace=wrap;" vertex="1" parent="1">
          <mxGeometry x="-4918" y="890" width="200" height="80" as="geometry" />
        </mxCell>
        <mxCell id="LFWVvYf6qhsQMJw6hhTW-453" value="" style="endArrow=block;endSize=16;endFill=0;html=1;rounded=0;entryX=0.5;entryY=1;entryDx=0;entryDy=0;exitX=0.5;exitY=0;exitDx=0;exitDy=0;" edge="1" parent="1" source="LFWVvYf6qhsQMJw6hhTW-424" target="LFWVvYf6qhsQMJw6hhTW-425">
          <mxGeometry width="160" relative="1" as="geometry">
            <mxPoint x="-5613" y="440" as="sourcePoint" />
            <mxPoint x="-5508" y="530" as="targetPoint" />
          </mxGeometry>
        </mxCell>
        <mxCell id="LFWVvYf6qhsQMJw6hhTW-454" value="" style="endArrow=diamondThin;endFill=1;endSize=24;html=1;rounded=0;exitX=1.007;exitY=0.183;exitDx=0;exitDy=0;exitPerimeter=0;entryX=-0.012;entryY=0.104;entryDx=0;entryDy=0;entryPerimeter=0;" edge="1" parent="1" source="LFWVvYf6qhsQMJw6hhTW-424" target="LFWVvYf6qhsQMJw6hhTW-436">
          <mxGeometry width="160" relative="1" as="geometry">
            <mxPoint x="-5418" y="700" as="sourcePoint" />
            <mxPoint x="-5258" y="700" as="targetPoint" />
          </mxGeometry>
        </mxCell>
        <mxCell id="LFWVvYf6qhsQMJw6hhTW-455" value="" style="endArrow=block;endSize=16;endFill=0;html=1;rounded=0;entryX=0.5;entryY=1;entryDx=0;entryDy=0;exitX=0.5;exitY=0;exitDx=0;exitDy=0;" edge="1" parent="1" source="LFWVvYf6qhsQMJw6hhTW-427" target="LFWVvYf6qhsQMJw6hhTW-440">
          <mxGeometry width="160" relative="1" as="geometry">
            <mxPoint x="-5270" y="1248.75" as="sourcePoint" />
            <mxPoint x="-5348" y="1231.25" as="targetPoint" />
          </mxGeometry>
        </mxCell>
        <mxCell id="LFWVvYf6qhsQMJw6hhTW-456" value="" style="endArrow=open;endFill=1;endSize=12;html=1;rounded=0;entryX=0.5;entryY=1;entryDx=0;entryDy=0;exitX=0.106;exitY=-0.012;exitDx=0;exitDy=0;exitPerimeter=0;" edge="1" parent="1" source="LFWVvYf6qhsQMJw6hhTW-436" target="LFWVvYf6qhsQMJw6hhTW-429">
          <mxGeometry width="160" relative="1" as="geometry">
            <mxPoint x="-5078" y="450" as="sourcePoint" />
            <mxPoint x="-4918" y="450" as="targetPoint" />
            <Array as="points">
              <mxPoint x="-5238" y="410" />
              <mxPoint x="-5397" y="410" />
            </Array>
          </mxGeometry>
        </mxCell>
        <mxCell id="LFWVvYf6qhsQMJw6hhTW-457" value="" style="endArrow=block;endSize=16;endFill=0;html=1;rounded=0;entryX=0.5;entryY=1;entryDx=0;entryDy=0;exitX=0.5;exitY=0;exitDx=0;exitDy=0;" edge="1" parent="1" source="LFWVvYf6qhsQMJw6hhTW-430" target="LFWVvYf6qhsQMJw6hhTW-427">
          <mxGeometry width="160" relative="1" as="geometry">
            <mxPoint x="-4788" y="1221.75" as="sourcePoint" />
            <mxPoint x="-4788" y="1111.75" as="targetPoint" />
          </mxGeometry>
        </mxCell>
        <mxCell id="LFWVvYf6qhsQMJw6hhTW-458" value="" style="endArrow=block;endSize=16;endFill=0;html=1;rounded=0;exitX=0.5;exitY=0;exitDx=0;exitDy=0;" edge="1" parent="1" source="LFWVvYf6qhsQMJw6hhTW-428">
          <mxGeometry width="160" relative="1" as="geometry">
            <mxPoint x="-5380" y="1588.75" as="sourcePoint" />
            <mxPoint x="-5268" y="1398.75" as="targetPoint" />
          </mxGeometry>
        </mxCell>
        <mxCell id="LFWVvYf6qhsQMJw6hhTW-459" value="" style="endArrow=open;endFill=1;endSize=12;html=1;rounded=0;entryX=0.5;entryY=1;entryDx=0;entryDy=0;exitX=0.5;exitY=0;exitDx=0;exitDy=0;" edge="1" parent="1" source="LFWVvYf6qhsQMJw6hhTW-431" target="LFWVvYf6qhsQMJw6hhTW-437">
          <mxGeometry width="160" relative="1" as="geometry">
            <mxPoint x="-4338" y="1265" as="sourcePoint" />
            <mxPoint x="-4337" y="1051" as="targetPoint" />
          </mxGeometry>
        </mxCell>
        <mxCell id="LFWVvYf6qhsQMJw6hhTW-460" value="" style="endArrow=open;endFill=1;endSize=12;html=1;rounded=0;entryX=1;entryY=0.5;entryDx=0;entryDy=0;exitX=0;exitY=0.5;exitDx=0;exitDy=0;" edge="1" parent="1" source="LFWVvYf6qhsQMJw6hhTW-437" target="LFWVvYf6qhsQMJw6hhTW-434">
          <mxGeometry width="160" relative="1" as="geometry">
            <mxPoint x="-4653.91" y="890" as="sourcePoint" />
            <mxPoint x="-4653.91" y="780" as="targetPoint" />
          </mxGeometry>
        </mxCell>
        <mxCell id="LFWVvYf6qhsQMJw6hhTW-461" value="" style="endArrow=open;endFill=1;endSize=12;html=1;rounded=0;entryX=1;entryY=0.5;entryDx=0;entryDy=0;exitX=-0.003;exitY=0.922;exitDx=0;exitDy=0;exitPerimeter=0;" edge="1" parent="1" source="LFWVvYf6qhsQMJw6hhTW-437" target="LFWVvYf6qhsQMJw6hhTW-436">
          <mxGeometry width="160" relative="1" as="geometry">
            <mxPoint x="-4648" y="760" as="sourcePoint" />
            <mxPoint x="-4738" y="760" as="targetPoint" />
            <Array as="points">
              <mxPoint x="-4868" y="760" />
              <mxPoint x="-4868" y="650" />
            </Array>
          </mxGeometry>
        </mxCell>
        <mxCell id="LFWVvYf6qhsQMJw6hhTW-462" value="&lt;p style=&quot;margin:0px;margin-top:4px;text-align:center;&quot;&gt;&lt;b style=&quot;background-color: initial;&quot;&gt;display&lt;/b&gt;&lt;br&gt;&lt;/p&gt;&lt;hr size=&quot;1&quot;&gt;&lt;p style=&quot;margin:0px;margin-left:4px;&quot;&gt;&lt;br&gt;&lt;/p&gt;&lt;hr size=&quot;1&quot;&gt;&lt;p style=&quot;margin:0px;margin-left:4px;&quot;&gt;+ execute(string param) : void&lt;br&gt;&lt;/p&gt;" style="verticalAlign=top;align=left;overflow=fill;fontSize=12;fontFamily=Helvetica;html=1;whiteSpace=wrap;" vertex="1" parent="1">
          <mxGeometry x="-4918" y="1130" width="200" height="80" as="geometry" />
        </mxCell>
        <mxCell id="LFWVvYf6qhsQMJw6hhTW-463" value="" style="endArrow=block;endSize=16;endFill=0;html=1;rounded=0;entryX=0;entryY=0.5;entryDx=0;entryDy=0;exitX=0.997;exitY=0.605;exitDx=0;exitDy=0;exitPerimeter=0;" edge="1" parent="1" source="LFWVvYf6qhsQMJw6hhTW-450" target="LFWVvYf6qhsQMJw6hhTW-431">
          <mxGeometry width="160" relative="1" as="geometry">
            <mxPoint x="-4668" y="1670" as="sourcePoint" />
            <mxPoint x="-4658" y="930" as="targetPoint" />
            <Array as="points">
              <mxPoint x="-4668" y="1658" />
              <mxPoint x="-4668" y="938" />
            </Array>
          </mxGeometry>
        </mxCell>
        <mxCell id="LFWVvYf6qhsQMJw6hhTW-464" value="" style="endArrow=none;html=1;edgeStyle=orthogonalEdgeStyle;rounded=0;entryX=0;entryY=0.5;entryDx=0;entryDy=0;exitX=1;exitY=0.5;exitDx=0;exitDy=0;" edge="1" parent="1" source="LFWVvYf6qhsQMJw6hhTW-442" target="LFWVvYf6qhsQMJw6hhTW-449">
          <mxGeometry relative="1" as="geometry">
            <mxPoint x="-4658" y="1090" as="sourcePoint" />
            <mxPoint x="-4498" y="1002.5" as="targetPoint" />
            <Array as="points">
              <mxPoint x="-4668" y="1050" />
              <mxPoint x="-4668" y="1090" />
            </Array>
          </mxGeometry>
        </mxCell>
        <mxCell id="LFWVvYf6qhsQMJw6hhTW-465" value="" style="endArrow=none;html=1;edgeStyle=orthogonalEdgeStyle;rounded=0;entryX=0;entryY=0.5;entryDx=0;entryDy=0;exitX=1;exitY=0.5;exitDx=0;exitDy=0;" edge="1" parent="1">
          <mxGeometry relative="1" as="geometry">
            <mxPoint x="-4718" y="1170" as="sourcePoint" />
            <mxPoint x="-4598" y="1210" as="targetPoint" />
            <Array as="points">
              <mxPoint x="-4668" y="1170" />
              <mxPoint x="-4668" y="1210" />
            </Array>
          </mxGeometry>
        </mxCell>
        <mxCell id="LFWVvYf6qhsQMJw6hhTW-466" value="" style="endArrow=none;html=1;edgeStyle=orthogonalEdgeStyle;rounded=0;entryX=0;entryY=0.5;entryDx=0;entryDy=0;exitX=1;exitY=0.5;exitDx=0;exitDy=0;" edge="1" parent="1">
          <mxGeometry relative="1" as="geometry">
            <mxPoint x="-4718" y="1290" as="sourcePoint" />
            <mxPoint x="-4598" y="1330" as="targetPoint" />
            <Array as="points">
              <mxPoint x="-4668" y="1290" />
              <mxPoint x="-4668" y="1330" />
            </Array>
          </mxGeometry>
        </mxCell>
        <mxCell id="LFWVvYf6qhsQMJw6hhTW-467" value="" style="endArrow=none;html=1;edgeStyle=orthogonalEdgeStyle;rounded=0;entryX=0;entryY=0.5;entryDx=0;entryDy=0;exitX=1;exitY=0.5;exitDx=0;exitDy=0;" edge="1" parent="1">
          <mxGeometry relative="1" as="geometry">
            <mxPoint x="-4718" y="1410" as="sourcePoint" />
            <mxPoint x="-4598" y="1450" as="targetPoint" />
            <Array as="points">
              <mxPoint x="-4668" y="1410" />
              <mxPoint x="-4668" y="1450" />
            </Array>
          </mxGeometry>
        </mxCell>
        <mxCell id="LFWVvYf6qhsQMJw6hhTW-468" value="" style="endArrow=none;html=1;edgeStyle=orthogonalEdgeStyle;rounded=0;entryX=0;entryY=0.5;entryDx=0;entryDy=0;exitX=1;exitY=0.5;exitDx=0;exitDy=0;" edge="1" parent="1">
          <mxGeometry relative="1" as="geometry">
            <mxPoint x="-4718" y="1530" as="sourcePoint" />
            <mxPoint x="-4598" y="1570" as="targetPoint" />
            <Array as="points">
              <mxPoint x="-4668" y="1530" />
              <mxPoint x="-4668" y="1570" />
            </Array>
          </mxGeometry>
        </mxCell>
        <mxCell id="LFWVvYf6qhsQMJw6hhTW-469" value="" style="endArrow=none;html=1;edgeStyle=orthogonalEdgeStyle;rounded=0;" edge="1" parent="1">
          <mxGeometry relative="1" as="geometry">
            <mxPoint x="-4718" y="937.9699999999998" as="sourcePoint" />
            <mxPoint x="-4558" y="937.9699999999998" as="targetPoint" />
          </mxGeometry>
        </mxCell>
        <mxCell id="LFWVvYf6qhsQMJw6hhTW-470" value="" style="endArrow=block;endSize=16;endFill=0;html=1;rounded=0;entryX=0.5;entryY=1;entryDx=0;entryDy=0;exitX=0.762;exitY=-0.013;exitDx=0;exitDy=0;exitPerimeter=0;" edge="1" parent="1" source="LFWVvYf6qhsQMJw6hhTW-436" target="LFWVvYf6qhsQMJw6hhTW-433">
          <mxGeometry width="160" relative="1" as="geometry">
            <mxPoint x="-4978" y="520" as="sourcePoint" />
            <mxPoint x="-5083.59" y="440" as="targetPoint" />
          </mxGeometry>
        </mxCell>
        <mxCell id="LFWVvYf6qhsQMJw6hhTW-471" value="" style="endArrow=block;endSize=16;endFill=0;html=1;rounded=0;entryX=0.5;entryY=1;entryDx=0;entryDy=0;exitX=0.5;exitY=0;exitDx=0;exitDy=0;" edge="1" parent="1" source="LFWVvYf6qhsQMJw6hhTW-434" target="LFWVvYf6qhsQMJw6hhTW-432">
          <mxGeometry width="160" relative="1" as="geometry">
            <mxPoint x="-4488" y="500" as="sourcePoint" />
            <mxPoint x="-4488" y="380" as="targetPoint" />
          </mxGeometry>
        </mxCell>
        <mxCell id="LFWVvYf6qhsQMJw6hhTW-472" value="" style="endArrow=open;html=1;endSize=12;startArrow=diamondThin;startSize=14;startFill=0;edgeStyle=orthogonalEdgeStyle;align=left;verticalAlign=bottom;rounded=0;entryX=0;entryY=0.5;entryDx=0;entryDy=0;exitX=1.002;exitY=0.608;exitDx=0;exitDy=0;exitPerimeter=0;" edge="1" parent="1" source="LFWVvYf6qhsQMJw6hhTW-433" target="LFWVvYf6qhsQMJw6hhTW-432">
          <mxGeometry x="-1" y="3" relative="1" as="geometry">
            <mxPoint x="-5158" y="470" as="sourcePoint" />
            <mxPoint x="-4998" y="470" as="targetPoint" />
          </mxGeometry>
        </mxCell>
        <mxCell id="LFWVvYf6qhsQMJw6hhTW-473" value="" style="endArrow=open;endFill=1;endSize=12;html=1;rounded=0;exitX=0.25;exitY=0;exitDx=0;exitDy=0;entryX=0.5;entryY=1;entryDx=0;entryDy=0;" edge="1" parent="1" source="LFWVvYf6qhsQMJw6hhTW-436" target="LFWVvYf6qhsQMJw6hhTW-439">
          <mxGeometry width="160" relative="1" as="geometry">
            <mxPoint x="-5128" y="473" as="sourcePoint" />
            <mxPoint x="-5184" y="240" as="targetPoint" />
            <Array as="points">
              <mxPoint x="-5184" y="330" />
              <mxPoint x="-4963" y="330" />
            </Array>
          </mxGeometry>
        </mxCell>
        <mxCell id="LFWVvYf6qhsQMJw6hhTW-474" value="" style="edgeStyle=orthogonalEdgeStyle;rounded=0;orthogonalLoop=1;jettySize=auto;html=1;" edge="1" parent="1" source="LFWVvYf6qhsQMJw6hhTW-475" target="LFWVvYf6qhsQMJw6hhTW-440">
          <mxGeometry relative="1" as="geometry" />
        </mxCell>
        <mxCell id="LFWVvYf6qhsQMJw6hhTW-475" value="&lt;p style=&quot;margin:0px;margin-top:4px;text-align:center;&quot;&gt;&lt;b&gt;adapter&lt;/b&gt;&lt;/p&gt;&lt;hr size=&quot;1&quot;&gt;&lt;p style=&quot;margin:0px;margin-left:4px;&quot;&gt;&lt;br&gt;&lt;/p&gt;&lt;hr size=&quot;1&quot;&gt;&lt;p style=&quot;margin:0px;margin-left:4px;&quot;&gt;+ MazeToSearcher(Maze2d&amp;amp;)(): void&lt;/p&gt;&lt;p style=&quot;margin:0px;margin-left:4px;&quot;&gt;&lt;br&gt;&lt;/p&gt;" style="verticalAlign=top;align=left;overflow=fill;fontSize=12;fontFamily=Helvetica;html=1;whiteSpace=wrap;" vertex="1" parent="1">
          <mxGeometry x="-5310" y="890" width="260" height="90" as="geometry" />
        </mxCell>
        <mxCell id="LFWVvYf6qhsQMJw6hhTW-476" value="" style="endArrow=diamondThin;endFill=1;endSize=24;html=1;rounded=0;exitX=1.003;exitY=0.218;exitDx=0;exitDy=0;exitPerimeter=0;entryX=-0.007;entryY=0.23;entryDx=0;entryDy=0;entryPerimeter=0;" edge="1" parent="1" source="LFWVvYf6qhsQMJw6hhTW-441" target="LFWVvYf6qhsQMJw6hhTW-427">
          <mxGeometry width="160" relative="1" as="geometry">
            <mxPoint x="-5320" y="1288.75" as="sourcePoint" />
            <mxPoint x="-5160" y="1288.75" as="targetPoint" />
          </mxGeometry>
        </mxCell>
        <mxCell id="LFWVvYf6qhsQMJw6hhTW-477" value="" style="endArrow=open;endFill=1;endSize=12;html=1;rounded=0;entryX=0.468;entryY=0.989;entryDx=0;entryDy=0;exitX=0.456;exitY=-0.001;exitDx=0;exitDy=0;entryPerimeter=0;exitPerimeter=0;" edge="1" parent="1" source="LFWVvYf6qhsQMJw6hhTW-437" target="LFWVvYf6qhsQMJw6hhTW-438">
          <mxGeometry width="160" relative="1" as="geometry">
            <mxPoint x="-4330" y="500" as="sourcePoint" />
            <mxPoint x="-4420" y="500" as="targetPoint" />
          </mxGeometry>
        </mxCell>
        <mxCell id="LFWVvYf6qhsQMJw6hhTW-478" value="" style="edgeStyle=elbowEdgeStyle;rounded=0;orthogonalLoop=1;jettySize=auto;html=1;elbow=vertical;curved=0;" edge="1" parent="1">
          <mxGeometry relative="1" as="geometry">
            <mxPoint x="-3770.333333333333" y="1291.25" as="sourcePoint" />
            <mxPoint x="-3630" y="1291.25" as="targetPoint" />
          </mxGeometry>
        </mxCell>
        <mxCell id="LFWVvYf6qhsQMJw6hhTW-479" value="choose command" style="edgeLabel;html=1;align=center;verticalAlign=middle;resizable=0;points=[];" vertex="1" connectable="0" parent="LFWVvYf6qhsQMJw6hhTW-478">
          <mxGeometry x="-0.1103" y="-1" relative="1" as="geometry">
            <mxPoint x="2" y="-11" as="offset" />
          </mxGeometry>
        </mxCell>
        <mxCell id="LFWVvYf6qhsQMJw6hhTW-480" value=":myView" style="shape=umlLifeline;perimeter=lifelinePerimeter;whiteSpace=wrap;html=1;container=0;dropTarget=0;collapsible=0;recursiveResize=0;outlineConnect=0;portConstraint=eastwest;newEdgeStyle={&quot;edgeStyle&quot;:&quot;elbowEdgeStyle&quot;,&quot;elbow&quot;:&quot;vertical&quot;,&quot;curved&quot;:0,&quot;rounded&quot;:0};" vertex="1" parent="1">
          <mxGeometry x="-3830" y="1201.25" width="100" height="360" as="geometry" />
        </mxCell>
        <mxCell id="LFWVvYf6qhsQMJw6hhTW-481" value="" style="html=1;points=[];perimeter=orthogonalPerimeter;outlineConnect=0;targetShapes=umlLifeline;portConstraint=eastwest;newEdgeStyle={&quot;edgeStyle&quot;:&quot;elbowEdgeStyle&quot;,&quot;elbow&quot;:&quot;vertical&quot;,&quot;curved&quot;:0,&quot;rounded&quot;:0};" vertex="1" parent="LFWVvYf6qhsQMJw6hhTW-480">
          <mxGeometry x="45" y="70" width="10" height="250" as="geometry" />
        </mxCell>
        <mxCell id="LFWVvYf6qhsQMJw6hhTW-482" value=":myControler" style="shape=umlLifeline;perimeter=lifelinePerimeter;whiteSpace=wrap;html=1;container=0;dropTarget=0;collapsible=0;recursiveResize=0;outlineConnect=0;portConstraint=eastwest;newEdgeStyle={&quot;edgeStyle&quot;:&quot;elbowEdgeStyle&quot;,&quot;elbow&quot;:&quot;vertical&quot;,&quot;curved&quot;:0,&quot;rounded&quot;:0};" vertex="1" parent="1">
          <mxGeometry x="-3671" y="1201.25" width="100" height="360" as="geometry" />
        </mxCell>
        <mxCell id="LFWVvYf6qhsQMJw6hhTW-483" value="" style="html=1;points=[];perimeter=orthogonalPerimeter;outlineConnect=0;targetShapes=umlLifeline;portConstraint=eastwest;newEdgeStyle={&quot;edgeStyle&quot;:&quot;elbowEdgeStyle&quot;,&quot;elbow&quot;:&quot;vertical&quot;,&quot;curved&quot;:0,&quot;rounded&quot;:0};" vertex="1" parent="LFWVvYf6qhsQMJw6hhTW-482">
          <mxGeometry x="45" y="80" width="10" height="240" as="geometry" />
        </mxCell>
        <mxCell id="LFWVvYf6qhsQMJw6hhTW-484" value="" style="html=1;points=[];perimeter=orthogonalPerimeter;outlineConnect=0;targetShapes=umlLifeline;portConstraint=eastwest;newEdgeStyle={&quot;edgeStyle&quot;:&quot;elbowEdgeStyle&quot;,&quot;elbow&quot;:&quot;vertical&quot;,&quot;curved&quot;:0,&quot;rounded&quot;:0};" vertex="1" parent="LFWVvYf6qhsQMJw6hhTW-482">
          <mxGeometry x="53" y="100" width="10" height="40" as="geometry" />
        </mxCell>
        <mxCell id="LFWVvYf6qhsQMJw6hhTW-485" value=":generate_maze" style="shape=umlLifeline;perimeter=lifelinePerimeter;whiteSpace=wrap;html=1;container=0;dropTarget=0;collapsible=0;recursiveResize=0;outlineConnect=0;portConstraint=eastwest;newEdgeStyle={&quot;edgeStyle&quot;:&quot;elbowEdgeStyle&quot;,&quot;elbow&quot;:&quot;vertical&quot;,&quot;curved&quot;:0,&quot;rounded&quot;:0};" vertex="1" parent="1">
          <mxGeometry x="-3510" y="1201.25" width="100" height="360" as="geometry" />
        </mxCell>
        <mxCell id="LFWVvYf6qhsQMJw6hhTW-486" value="" style="html=1;points=[];perimeter=orthogonalPerimeter;outlineConnect=0;targetShapes=umlLifeline;portConstraint=eastwest;newEdgeStyle={&quot;edgeStyle&quot;:&quot;elbowEdgeStyle&quot;,&quot;elbow&quot;:&quot;vertical&quot;,&quot;curved&quot;:0,&quot;rounded&quot;:0};" vertex="1" parent="LFWVvYf6qhsQMJw6hhTW-485">
          <mxGeometry x="45" y="150" width="10" height="170" as="geometry" />
        </mxCell>
        <mxCell id="LFWVvYf6qhsQMJw6hhTW-487" value=":myModel" style="shape=umlLifeline;perimeter=lifelinePerimeter;whiteSpace=wrap;html=1;container=0;dropTarget=0;collapsible=0;recursiveResize=0;outlineConnect=0;portConstraint=eastwest;newEdgeStyle={&quot;edgeStyle&quot;:&quot;elbowEdgeStyle&quot;,&quot;elbow&quot;:&quot;vertical&quot;,&quot;curved&quot;:0,&quot;rounded&quot;:0};" vertex="1" parent="1">
          <mxGeometry x="-3350" y="1201.25" width="100" height="360" as="geometry" />
        </mxCell>
        <mxCell id="LFWVvYf6qhsQMJw6hhTW-488" value="" style="html=1;points=[];perimeter=orthogonalPerimeter;outlineConnect=0;targetShapes=umlLifeline;portConstraint=eastwest;newEdgeStyle={&quot;edgeStyle&quot;:&quot;elbowEdgeStyle&quot;,&quot;elbow&quot;:&quot;vertical&quot;,&quot;curved&quot;:0,&quot;rounded&quot;:0};" vertex="1" parent="LFWVvYf6qhsQMJw6hhTW-487">
          <mxGeometry x="45" y="160" width="10" height="110" as="geometry" />
        </mxCell>
        <mxCell id="LFWVvYf6qhsQMJw6hhTW-489" value="" style="html=1;points=[];perimeter=orthogonalPerimeter;outlineConnect=0;targetShapes=umlLifeline;portConstraint=eastwest;newEdgeStyle={&quot;edgeStyle&quot;:&quot;elbowEdgeStyle&quot;,&quot;elbow&quot;:&quot;vertical&quot;,&quot;curved&quot;:0,&quot;rounded&quot;:0};" vertex="1" parent="LFWVvYf6qhsQMJw6hhTW-487">
          <mxGeometry x="52" y="220" width="10" height="40" as="geometry" />
        </mxCell>
        <mxCell id="LFWVvYf6qhsQMJw6hhTW-490" value="add ,maze" style="html=1;align=left;spacingLeft=2;endArrow=block;rounded=0;edgeStyle=orthogonalEdgeStyle;curved=0;rounded=0;" edge="1" parent="LFWVvYf6qhsQMJw6hhTW-487" target="LFWVvYf6qhsQMJw6hhTW-489">
          <mxGeometry relative="1" as="geometry">
            <mxPoint x="67" y="250" as="sourcePoint" />
            <Array as="points">
              <mxPoint x="87" y="240" />
            </Array>
          </mxGeometry>
        </mxCell>
        <mxCell id="LFWVvYf6qhsQMJw6hhTW-491" value=":maze2d" style="shape=umlLifeline;perimeter=lifelinePerimeter;whiteSpace=wrap;html=1;container=0;dropTarget=0;collapsible=0;recursiveResize=0;outlineConnect=0;portConstraint=eastwest;newEdgeStyle={&quot;edgeStyle&quot;:&quot;elbowEdgeStyle&quot;,&quot;elbow&quot;:&quot;vertical&quot;,&quot;curved&quot;:0,&quot;rounded&quot;:0};" vertex="1" parent="1">
          <mxGeometry x="-3190" y="1201.25" width="100" height="360" as="geometry" />
        </mxCell>
        <mxCell id="LFWVvYf6qhsQMJw6hhTW-492" value="" style="html=1;points=[];perimeter=orthogonalPerimeter;outlineConnect=0;targetShapes=umlLifeline;portConstraint=eastwest;newEdgeStyle={&quot;edgeStyle&quot;:&quot;elbowEdgeStyle&quot;,&quot;elbow&quot;:&quot;vertical&quot;,&quot;curved&quot;:0,&quot;rounded&quot;:0};" vertex="1" parent="LFWVvYf6qhsQMJw6hhTW-491">
          <mxGeometry x="45" y="180" width="10" height="40" as="geometry" />
        </mxCell>
        <mxCell id="LFWVvYf6qhsQMJw6hhTW-493" value="Actor" style="shape=umlActor;verticalLabelPosition=bottom;verticalAlign=top;html=1;outlineConnect=0;" vertex="1" parent="1">
          <mxGeometry x="-3910" y="1261.25" width="30" height="60" as="geometry" />
        </mxCell>
        <mxCell id="LFWVvYf6qhsQMJw6hhTW-494" value="" style="endArrow=classic;html=1;rounded=0;exitX=1;exitY=0.3333333333333333;exitDx=0;exitDy=0;exitPerimeter=0;" edge="1" parent="1" source="LFWVvYf6qhsQMJw6hhTW-493">
          <mxGeometry width="50" height="50" relative="1" as="geometry">
            <mxPoint x="-3470" y="1471.25" as="sourcePoint" />
            <mxPoint x="-3790" y="1281.25" as="targetPoint" />
          </mxGeometry>
        </mxCell>
        <mxCell id="LFWVvYf6qhsQMJw6hhTW-495" value="press generate" style="edgeLabel;html=1;align=center;verticalAlign=middle;resizable=0;points=[];" vertex="1" connectable="0" parent="LFWVvYf6qhsQMJw6hhTW-494">
          <mxGeometry x="-0.2222" y="-1" relative="1" as="geometry">
            <mxPoint x="-5" y="9" as="offset" />
          </mxGeometry>
        </mxCell>
        <mxCell id="LFWVvYf6qhsQMJw6hhTW-496" value="" style="edgeStyle=elbowEdgeStyle;rounded=0;orthogonalLoop=1;jettySize=auto;html=1;elbow=vertical;curved=0;" edge="1" parent="1">
          <mxGeometry relative="1" as="geometry">
            <mxPoint x="-3614.003333333333" y="1371.25" as="sourcePoint" />
            <mxPoint x="-3473.67" y="1371.25" as="targetPoint" />
          </mxGeometry>
        </mxCell>
        <mxCell id="LFWVvYf6qhsQMJw6hhTW-497" value="run execute" style="edgeLabel;html=1;align=center;verticalAlign=middle;resizable=0;points=[];" vertex="1" connectable="0" parent="LFWVvYf6qhsQMJw6hhTW-496">
          <mxGeometry x="-0.1103" y="-1" relative="1" as="geometry">
            <mxPoint x="2" y="-11" as="offset" />
          </mxGeometry>
        </mxCell>
        <mxCell id="LFWVvYf6qhsQMJw6hhTW-498" value="" style="edgeStyle=elbowEdgeStyle;rounded=0;orthogonalLoop=1;jettySize=auto;html=1;elbow=vertical;curved=0;" edge="1" parent="1">
          <mxGeometry relative="1" as="geometry">
            <mxPoint x="-3450.003333333333" y="1380.75" as="sourcePoint" />
            <mxPoint x="-3309.67" y="1380.75" as="targetPoint" />
          </mxGeometry>
        </mxCell>
        <mxCell id="LFWVvYf6qhsQMJw6hhTW-499" value="make new maze" style="edgeLabel;html=1;align=center;verticalAlign=middle;resizable=0;points=[];" vertex="1" connectable="0" parent="LFWVvYf6qhsQMJw6hhTW-498">
          <mxGeometry x="-0.1103" y="-1" relative="1" as="geometry">
            <mxPoint x="2" y="-11" as="offset" />
          </mxGeometry>
        </mxCell>
        <mxCell id="LFWVvYf6qhsQMJw6hhTW-500" value="return bool&amp;nbsp;" style="html=1;verticalAlign=bottom;endArrow=open;dashed=1;endSize=8;edgeStyle=elbowEdgeStyle;elbow=vertical;curved=0;rounded=0;" edge="1" parent="1">
          <mxGeometry relative="1" as="geometry">
            <mxPoint x="-3307" y="1467.25" as="sourcePoint" />
            <mxPoint x="-3452" y="1467.25" as="targetPoint" />
          </mxGeometry>
        </mxCell>
        <mxCell id="LFWVvYf6qhsQMJw6hhTW-501" value="" style="edgeStyle=elbowEdgeStyle;rounded=0;orthogonalLoop=1;jettySize=auto;html=1;elbow=vertical;curved=0;" edge="1" parent="1">
          <mxGeometry relative="1" as="geometry">
            <mxPoint x="-3290.003333333333" y="1391.3899999999999" as="sourcePoint" />
            <mxPoint x="-3149.67" y="1391.3899999999999" as="targetPoint" />
          </mxGeometry>
        </mxCell>
        <mxCell id="LFWVvYf6qhsQMJw6hhTW-502" value="generate maze" style="edgeLabel;html=1;align=center;verticalAlign=middle;resizable=0;points=[];" vertex="1" connectable="0" parent="LFWVvYf6qhsQMJw6hhTW-501">
          <mxGeometry x="-0.1103" y="-1" relative="1" as="geometry">
            <mxPoint x="2" y="-11" as="offset" />
          </mxGeometry>
        </mxCell>
        <mxCell id="LFWVvYf6qhsQMJw6hhTW-503" value="return maze" style="html=1;verticalAlign=bottom;endArrow=open;dashed=1;endSize=8;edgeStyle=elbowEdgeStyle;elbow=vertical;curved=0;rounded=0;" edge="1" parent="1">
          <mxGeometry relative="1" as="geometry">
            <mxPoint x="-3148" y="1411.3899999999999" as="sourcePoint" />
            <mxPoint x="-3293" y="1411.25" as="targetPoint" />
          </mxGeometry>
        </mxCell>
        <mxCell id="LFWVvYf6qhsQMJw6hhTW-504" value="" style="edgeStyle=elbowEdgeStyle;rounded=0;orthogonalLoop=1;jettySize=auto;html=1;elbow=vertical;curved=0;" edge="1" parent="1">
          <mxGeometry relative="1" as="geometry">
            <mxPoint x="-3450.003333333333" y="1501.25" as="sourcePoint" />
            <mxPoint x="-2990" y="1501.25" as="targetPoint" />
          </mxGeometry>
        </mxCell>
        <mxCell id="LFWVvYf6qhsQMJw6hhTW-505" value="notify" style="edgeLabel;html=1;align=center;verticalAlign=middle;resizable=0;points=[];" vertex="1" connectable="0" parent="LFWVvYf6qhsQMJw6hhTW-504">
          <mxGeometry x="-0.1103" y="-1" relative="1" as="geometry">
            <mxPoint x="2" y="-11" as="offset" />
          </mxGeometry>
        </mxCell>
        <mxCell id="LFWVvYf6qhsQMJw6hhTW-506" value=":publisher" style="shape=umlLifeline;perimeter=lifelinePerimeter;whiteSpace=wrap;html=1;container=0;dropTarget=0;collapsible=0;recursiveResize=0;outlineConnect=0;portConstraint=eastwest;newEdgeStyle={&quot;edgeStyle&quot;:&quot;elbowEdgeStyle&quot;,&quot;elbow&quot;:&quot;vertical&quot;,&quot;curved&quot;:0,&quot;rounded&quot;:0};" vertex="1" parent="1">
          <mxGeometry x="-3030" y="1201.25" width="100" height="360" as="geometry" />
        </mxCell>
        <mxCell id="LFWVvYf6qhsQMJw6hhTW-507" value="" style="html=1;points=[];perimeter=orthogonalPerimeter;outlineConnect=0;targetShapes=umlLifeline;portConstraint=eastwest;newEdgeStyle={&quot;edgeStyle&quot;:&quot;elbowEdgeStyle&quot;,&quot;elbow&quot;:&quot;vertical&quot;,&quot;curved&quot;:0,&quot;rounded&quot;:0};" vertex="1" parent="LFWVvYf6qhsQMJw6hhTW-506">
          <mxGeometry x="45" y="290" width="10" height="40" as="geometry" />
        </mxCell>
        <mxCell id="LFWVvYf6qhsQMJw6hhTW-508" value="initial command" style="html=1;align=left;spacingLeft=2;endArrow=block;rounded=0;edgeStyle=orthogonalEdgeStyle;curved=0;rounded=0;" edge="1" parent="1" target="LFWVvYf6qhsQMJw6hhTW-484">
          <mxGeometry x="1" y="-11" relative="1" as="geometry">
            <mxPoint x="-3610" y="1331.25" as="sourcePoint" />
            <Array as="points">
              <mxPoint x="-3580" y="1331.25" />
              <mxPoint x="-3580" y="1311.25" />
            </Array>
            <mxPoint x="-4" y="1" as="offset" />
          </mxGeometry>
        </mxCell>
        <mxCell id="LFWVvYf6qhsQMJw6hhTW-509" value="return" style="html=1;verticalAlign=bottom;endArrow=open;dashed=1;endSize=8;edgeStyle=elbowEdgeStyle;elbow=vertical;curved=0;rounded=0;entryX=0.571;entryY=0.856;entryDx=0;entryDy=0;entryPerimeter=0;" edge="1" parent="1">
          <mxGeometry relative="1" as="geometry">
            <mxPoint x="-3629.91" y="1515.25" as="sourcePoint" />
            <mxPoint x="-3772.8999999999996" y="1514.4099999999999" as="targetPoint" />
          </mxGeometry>
        </mxCell>
        <mxCell id="LFWVvYf6qhsQMJw6hhTW-510" value="return bool&amp;nbsp;" style="html=1;verticalAlign=bottom;endArrow=open;dashed=1;endSize=8;edgeStyle=elbowEdgeStyle;elbow=vertical;curved=0;rounded=0;" edge="1" parent="1">
          <mxGeometry relative="1" as="geometry">
            <mxPoint x="-3467.5" y="1506.25" as="sourcePoint" />
            <mxPoint x="-3612.5" y="1506.25" as="targetPoint" />
          </mxGeometry>
        </mxCell>
        <mxCell id="LFWVvYf6qhsQMJw6hhTW-512" value="" style="edgeStyle=orthogonalEdgeStyle;rounded=0;orthogonalLoop=1;jettySize=auto;html=1;entryX=1;entryY=0.5;entryDx=0;entryDy=0;exitX=0.5;exitY=0.5;exitDx=0;exitDy=0;exitPerimeter=0;" edge="1" parent="1" source="LFWVvYf6qhsQMJw6hhTW-13" target="LFWVvYf6qhsQMJw6hhTW-27">
          <mxGeometry relative="1" as="geometry">
            <mxPoint x="-1924" y="2010" as="sourcePoint" />
            <mxPoint x="-2043" y="2020" as="targetPoint" />
          </mxGeometry>
        </mxCell>
        <mxCell id="LFWVvYf6qhsQMJw6hhTW-513" value="" style="edgeStyle=orthogonalEdgeStyle;rounded=0;orthogonalLoop=1;jettySize=auto;html=1;entryX=1;entryY=0.5;entryDx=0;entryDy=0;exitX=0.5;exitY=0.5;exitDx=0;exitDy=0;exitPerimeter=0;" edge="1" parent="1" source="LFWVvYf6qhsQMJw6hhTW-13" target="LFWVvYf6qhsQMJw6hhTW-26">
          <mxGeometry relative="1" as="geometry">
            <mxPoint x="-1964" y="1980" as="sourcePoint" />
            <mxPoint x="-2043" y="2100" as="targetPoint" />
          </mxGeometry>
        </mxCell>
        <mxCell id="LFWVvYf6qhsQMJw6hhTW-517" value="" style="edgeStyle=orthogonalEdgeStyle;rounded=0;orthogonalLoop=1;jettySize=auto;html=1;entryX=1;entryY=0.5;entryDx=0;entryDy=0;exitX=0.5;exitY=0.5;exitDx=0;exitDy=0;exitPerimeter=0;" edge="1" parent="1" source="LFWVvYf6qhsQMJw6hhTW-514" target="LFWVvYf6qhsQMJw6hhTW-24">
          <mxGeometry relative="1" as="geometry">
            <mxPoint x="-1869" y="1667.5" as="targetPoint" />
            <Array as="points">
              <mxPoint x="-1774" y="1690" />
              <mxPoint x="-1774" y="1850" />
            </Array>
          </mxGeometry>
        </mxCell>
        <mxCell id="LFWVvYf6qhsQMJw6hhTW-514" value="File" style="shape=umlActor;verticalLabelPosition=bottom;verticalAlign=top;html=1;outlineConnect=0;" vertex="1" parent="1">
          <mxGeometry x="-1674" y="1660" width="30" height="60" as="geometry" />
        </mxCell>
        <mxCell id="LFWVvYf6qhsQMJw6hhTW-518" value="" style="edgeStyle=orthogonalEdgeStyle;rounded=0;orthogonalLoop=1;jettySize=auto;html=1;entryX=1;entryY=0.5;entryDx=0;entryDy=0;exitX=0.5;exitY=0.5;exitDx=0;exitDy=0;exitPerimeter=0;" edge="1" parent="1" source="LFWVvYf6qhsQMJw6hhTW-514" target="LFWVvYf6qhsQMJw6hhTW-23">
          <mxGeometry relative="1" as="geometry">
            <mxPoint x="-1749" y="1678" as="sourcePoint" />
            <mxPoint x="-2043" y="1860" as="targetPoint" />
            <Array as="points">
              <mxPoint x="-1774" y="1690" />
              <mxPoint x="-1774" y="1770" />
            </Array>
          </mxGeometry>
        </mxCell>
        <mxCell id="LFWVvYf6qhsQMJw6hhTW-534" value="&amp;lt;&amp;lt;uses&amp;gt;&amp;gt;" style="edgeLabel;html=1;align=center;verticalAlign=middle;resizable=0;points=[];" vertex="1" connectable="0" parent="LFWVvYf6qhsQMJw6hhTW-518">
          <mxGeometry x="0.0691" y="-2" relative="1" as="geometry">
            <mxPoint as="offset" />
          </mxGeometry>
        </mxCell>
        <mxCell id="LFWVvYf6qhsQMJw6hhTW-519" value="" style="edgeStyle=orthogonalEdgeStyle;rounded=0;orthogonalLoop=1;jettySize=auto;html=1;entryX=1;entryY=0.5;entryDx=0;entryDy=0;exitX=0.5;exitY=0.5;exitDx=0;exitDy=0;exitPerimeter=0;" edge="1" parent="1" source="LFWVvYf6qhsQMJw6hhTW-514" target="LFWVvYf6qhsQMJw6hhTW-12">
          <mxGeometry relative="1" as="geometry">
            <mxPoint x="-1749" y="1678" as="sourcePoint" />
            <mxPoint x="-2043" y="1780" as="targetPoint" />
            <Array as="points">
              <mxPoint x="-1774" y="1690" />
              <mxPoint x="-1774" y="1610" />
            </Array>
          </mxGeometry>
        </mxCell>
        <mxCell id="LFWVvYf6qhsQMJw6hhTW-531" value="&amp;lt;&amp;lt;uses&amp;gt;&amp;gt;" style="edgeLabel;html=1;align=center;verticalAlign=middle;resizable=0;points=[];" vertex="1" connectable="0" parent="LFWVvYf6qhsQMJw6hhTW-519">
          <mxGeometry x="0.0868" y="-6" relative="1" as="geometry">
            <mxPoint as="offset" />
          </mxGeometry>
        </mxCell>
        <mxCell id="LFWVvYf6qhsQMJw6hhTW-520" value="" style="edgeStyle=orthogonalEdgeStyle;rounded=0;orthogonalLoop=1;jettySize=auto;html=1;entryX=1;entryY=0.5;entryDx=0;entryDy=0;" edge="1" parent="1" source="LFWVvYf6qhsQMJw6hhTW-514" target="LFWVvYf6qhsQMJw6hhTW-11">
          <mxGeometry relative="1" as="geometry">
            <mxPoint x="-1749" y="1678" as="sourcePoint" />
            <mxPoint x="-2043" y="1620" as="targetPoint" />
            <Array as="points">
              <mxPoint x="-1774" y="1690" />
              <mxPoint x="-1774" y="1530" />
            </Array>
          </mxGeometry>
        </mxCell>
        <mxCell id="LFWVvYf6qhsQMJw6hhTW-532" value="&amp;lt;&amp;lt;uses&amp;gt;&amp;gt;" style="edgeLabel;html=1;align=center;verticalAlign=middle;resizable=0;points=[];" vertex="1" connectable="0" parent="LFWVvYf6qhsQMJw6hhTW-520">
          <mxGeometry x="0.1852" y="-4" relative="1" as="geometry">
            <mxPoint as="offset" />
          </mxGeometry>
        </mxCell>
        <mxCell id="LFWVvYf6qhsQMJw6hhTW-521" value="" style="edgeStyle=orthogonalEdgeStyle;rounded=0;orthogonalLoop=1;jettySize=auto;html=1;entryX=1;entryY=0.5;entryDx=0;entryDy=0;exitX=0.5;exitY=0.5;exitDx=0;exitDy=0;exitPerimeter=0;" edge="1" parent="1" source="LFWVvYf6qhsQMJw6hhTW-514" target="LFWVvYf6qhsQMJw6hhTW-10">
          <mxGeometry relative="1" as="geometry">
            <mxPoint x="-1764" y="1678" as="sourcePoint" />
            <mxPoint x="-2043" y="1540" as="targetPoint" />
            <Array as="points">
              <mxPoint x="-1774" y="1690" />
              <mxPoint x="-1774" y="1450" />
            </Array>
          </mxGeometry>
        </mxCell>
        <mxCell id="LFWVvYf6qhsQMJw6hhTW-533" value="&amp;lt;&amp;lt;uses&amp;gt;&amp;gt;" style="edgeLabel;html=1;align=center;verticalAlign=middle;resizable=0;points=[];" vertex="1" connectable="0" parent="LFWVvYf6qhsQMJw6hhTW-521">
          <mxGeometry x="0.304" y="-3" relative="1" as="geometry">
            <mxPoint as="offset" />
          </mxGeometry>
        </mxCell>
        <mxCell id="LFWVvYf6qhsQMJw6hhTW-523" value="" style="edgeStyle=orthogonalEdgeStyle;rounded=0;orthogonalLoop=1;jettySize=auto;html=1;entryX=1;entryY=0.5;entryDx=0;entryDy=0;exitX=0.5;exitY=0.5;exitDx=0;exitDy=0;exitPerimeter=0;" edge="1" parent="1" source="LFWVvYf6qhsQMJw6hhTW-514" target="LFWVvYf6qhsQMJw6hhTW-22">
          <mxGeometry relative="1" as="geometry">
            <mxPoint x="-1729" y="1720" as="sourcePoint" />
            <mxPoint x="-2043" y="1780" as="targetPoint" />
          </mxGeometry>
        </mxCell>
        <mxCell id="LFWVvYf6qhsQMJw6hhTW-527" value="&amp;lt;&amp;lt;uses&amp;gt;&amp;gt;" style="edgeLabel;html=1;align=center;verticalAlign=middle;resizable=0;points=[];" vertex="1" connectable="0" parent="LFWVvYf6qhsQMJw6hhTW-523">
          <mxGeometry x="-0.0398" y="-3" relative="1" as="geometry">
            <mxPoint x="15" y="-7" as="offset" />
          </mxGeometry>
        </mxCell>
        <mxCell id="LFWVvYf6qhsQMJw6hhTW-526" value="" style="edgeStyle=orthogonalEdgeStyle;rounded=0;orthogonalLoop=1;jettySize=auto;html=1;entryX=1;entryY=0.5;entryDx=0;entryDy=0;exitX=0.5;exitY=0.5;exitDx=0;exitDy=0;exitPerimeter=0;" edge="1" parent="1" source="LFWVvYf6qhsQMJw6hhTW-2" target="LFWVvYf6qhsQMJw6hhTW-8">
          <mxGeometry relative="1" as="geometry">
            <mxPoint x="-1744" y="1390" as="sourcePoint" />
            <mxPoint x="-2047" y="1300" as="targetPoint" />
          </mxGeometry>
        </mxCell>
        <mxCell id="LFWVvYf6qhsQMJw6hhTW-539" value="" style="edgeStyle=orthogonalEdgeStyle;rounded=0;orthogonalLoop=1;jettySize=auto;html=1;entryX=1;entryY=0.5;entryDx=0;entryDy=0;exitX=0.5;exitY=0.5;exitDx=0;exitDy=0;exitPerimeter=0;" edge="1" parent="1" source="LFWVvYf6qhsQMJw6hhTW-2" target="LFWVvYf6qhsQMJw6hhTW-7">
          <mxGeometry relative="1" as="geometry">
            <mxPoint x="-1649" y="1380" as="sourcePoint" />
            <mxPoint x="-2043" y="1380" as="targetPoint" />
            <Array as="points">
              <mxPoint x="-1984" y="1370" />
              <mxPoint x="-1984" y="1290" />
            </Array>
          </mxGeometry>
        </mxCell>
        <mxCell id="LFWVvYf6qhsQMJw6hhTW-541" value="" style="edgeStyle=orthogonalEdgeStyle;rounded=0;orthogonalLoop=1;jettySize=auto;html=1;entryX=1;entryY=0;entryDx=0;entryDy=0;exitX=0.5;exitY=0.5;exitDx=0;exitDy=0;exitPerimeter=0;" edge="1" parent="1" source="LFWVvYf6qhsQMJw6hhTW-2" target="LFWVvYf6qhsQMJw6hhTW-10">
          <mxGeometry relative="1" as="geometry">
            <mxPoint x="-1649" y="1380" as="sourcePoint" />
            <mxPoint x="-2043" y="1380" as="targetPoint" />
            <Array as="points">
              <mxPoint x="-1984" y="1370" />
              <mxPoint x="-1984" y="1429" />
            </Array>
          </mxGeometry>
        </mxCell>
        <mxCell id="LFWVvYf6qhsQMJw6hhTW-544" value="" style="edgeStyle=orthogonalEdgeStyle;rounded=0;orthogonalLoop=1;jettySize=auto;html=1;entryX=1;entryY=0;entryDx=0;entryDy=0;exitX=0.5;exitY=0.5;exitDx=0;exitDy=0;exitPerimeter=0;" edge="1" parent="1" source="LFWVvYf6qhsQMJw6hhTW-2" target="LFWVvYf6qhsQMJw6hhTW-22">
          <mxGeometry relative="1" as="geometry">
            <mxPoint x="-1600" y="1210" as="sourcePoint" />
            <mxPoint x="-1994" y="1210" as="targetPoint" />
            <Array as="points">
              <mxPoint x="-1984" y="1370" />
              <mxPoint x="-1984" y="1669" />
            </Array>
          </mxGeometry>
        </mxCell>
        <mxCell id="LFWVvYf6qhsQMJw6hhTW-545" value="" style="edgeStyle=orthogonalEdgeStyle;rounded=0;orthogonalLoop=1;jettySize=auto;html=1;entryX=1;entryY=0;entryDx=0;entryDy=0;exitX=0.5;exitY=0.5;exitDx=0;exitDy=0;exitPerimeter=0;" edge="1" parent="1" source="LFWVvYf6qhsQMJw6hhTW-2" target="LFWVvYf6qhsQMJw6hhTW-12">
          <mxGeometry relative="1" as="geometry">
            <mxPoint x="-1590" y="1220" as="sourcePoint" />
            <mxPoint x="-1984" y="1220" as="targetPoint" />
            <Array as="points">
              <mxPoint x="-1984" y="1370" />
              <mxPoint x="-1984" y="1589" />
            </Array>
          </mxGeometry>
        </mxCell>
        <mxCell id="LFWVvYf6qhsQMJw6hhTW-546" value="" style="edgeStyle=orthogonalEdgeStyle;rounded=0;orthogonalLoop=1;jettySize=auto;html=1;entryX=1;entryY=0;entryDx=0;entryDy=0;exitX=0.5;exitY=0.5;exitDx=0;exitDy=0;exitPerimeter=0;" edge="1" parent="1" source="LFWVvYf6qhsQMJw6hhTW-2" target="LFWVvYf6qhsQMJw6hhTW-11">
          <mxGeometry relative="1" as="geometry">
            <mxPoint x="-1580" y="1230" as="sourcePoint" />
            <mxPoint x="-1974" y="1230" as="targetPoint" />
            <Array as="points">
              <mxPoint x="-1984" y="1370" />
              <mxPoint x="-1984" y="1509" />
            </Array>
          </mxGeometry>
        </mxCell>
      </root>
    </mxGraphModel>
  </diagram>
</mxfile>
